<svg width="189" height="192" viewBox="0 0 189 192" fill="none" xmlns="http://www.w3.org/2000/svg">
<g opacity="0.4" clip-path="url(#clip0_99_230)">
<path d="M105.891 57.4409C118.884 42.1093 142.199 40.4389 157.868 53.7172C173.537 66.9954 175.714 90.2688 162.721 105.6C149.728 120.932 126.413 122.603 110.744 109.324C95.0756 96.046 92.8986 72.7726 105.891 57.4409ZM104.731 56.4581C91.1858 72.4423 93.447 96.6157 109.783 110.459C126.118 124.303 150.335 122.568 163.881 106.583C177.426 90.5991 175.165 66.4257 158.829 52.5823C142.494 38.7389 118.277 40.4739 104.731 56.4581Z" fill="white" fill-opacity="0.8"/>
<path d="M72.2606 70.014C73.7368 68.272 75.715 67.1017 77.9765 66.6199C80.72 66.0396 83.5453 66.562 85.9371 68.1015C88.328 69.6303 89.9956 71.9892 90.6369 74.736C91.3943 77.9808 90.6028 81.278 88.4775 83.786C87.0013 85.5279 85.0183 86.704 82.7616 87.1801C77.0962 88.3748 71.4219 84.7361 70.1011 79.064C69.3438 75.8191 70.1352 72.522 72.2606 70.014ZM71.1008 69.0311C68.7783 71.7718 67.7488 75.5497 68.6349 79.3715C70.1496 85.8612 76.6248 90.0128 83.1066 88.6424C85.772 88.0837 88.0216 86.6753 89.6421 84.7631C91.9646 82.0225 92.9941 78.2446 92.108 74.4227C90.5933 67.9331 84.1181 63.7815 77.6363 65.1519C74.9709 65.7106 72.7213 67.1189 71.1008 69.0311Z" fill="white" fill-opacity="0.8"/>
<path d="M52.8117 117.525L53.9715 118.508C58.2463 113.464 63.9622 110.069 70.4971 108.695C78.4297 107.024 86.6016 108.538 93.5144 112.973C100.427 117.408 105.256 124.219 107.103 132.151C109.288 141.529 107.014 151.067 100.869 158.319C96.5941 163.363 90.8782 166.757 84.3433 168.131C67.97 171.58 51.5499 161.058 47.7318 144.671C45.5465 135.293 47.8205 125.755 53.9657 118.503L52.8059 117.52M52.8069 117.531C46.6424 124.805 43.9028 134.845 46.2666 144.989C50.2806 162.215 67.4735 173.236 84.6787 169.605C91.7525 168.112 97.725 164.38 102.024 159.307C108.188 152.033 110.928 141.993 108.564 131.849C104.55 114.623 87.3573 103.602 70.152 107.233C63.0783 108.726 57.1057 112.458 52.8069 117.531Z" fill="white" fill-opacity="0.8"/>
<path d="M34.3133 91.3495C32.3027 84.4103 36.4228 77.2558 43.538 75.3497" stroke="white" stroke-opacity="0.8" stroke-width="2" stroke-miterlimit="10"/>
<path d="M73.1877 79.5838C71.8794 75.0727 73.8803 70.607 77.6615 69.5899" stroke="white" stroke-opacity="0.8" stroke-width="2" stroke-miterlimit="10"/>
<path d="M93.1901 52.3711C95.3972 53.7053 96.1083 56.5697 94.7982 58.7741" stroke="white" stroke-opacity="0.8" stroke-miterlimit="10"/>
<path d="M89.0153 94.2149C91.2224 95.5491 91.9335 98.4135 90.6234 100.618" stroke="white" stroke-opacity="0.8" stroke-miterlimit="10"/>
<path d="M74.0656 94.2202C75.5656 95.1307 76.2198 96.816 75.5129 97.9912" stroke="white" stroke-opacity="0.8" stroke-miterlimit="10"/>
<path d="M89.6428 117.765C100.25 124.189 103.694 138.008 97.3381 148.659" stroke="white" stroke-opacity="0.8" stroke-width="2" stroke-miterlimit="10"/>
<path d="M144.746 52.5413C160.633 59.1898 168.744 76.3193 162.883 90.8309" stroke="white" stroke-opacity="0.8" stroke-width="2" stroke-miterlimit="10"/>
<path d="M33.3862 77.1591C35.9058 74.1858 39.2795 72.18 43.1383 71.3652C52.7984 69.3247 62.4884 75.5378 64.7439 85.2095C66.0306 90.7455 64.6884 96.3738 61.0628 100.652C58.5431 103.625 55.1694 105.631 51.3106 106.446C41.6505 108.487 31.9605 102.273 29.705 92.6018C28.4183 87.0658 29.7605 81.4374 33.3862 77.1591ZM32.2264 76.1762C28.4661 80.6135 26.801 86.7287 28.2388 92.9094C30.6834 103.404 41.1684 110.125 51.6508 107.914C55.9598 107.003 59.6019 104.727 62.2226 101.635C65.9828 97.1978 67.6479 91.0826 66.2102 84.9019C63.7655 74.407 53.2805 67.6859 42.7981 69.8973C38.4891 70.8082 34.847 73.0838 32.2264 76.1762Z" fill="white" fill-opacity="0.8"/>
<path d="M87.7964 52.9281C88.5321 52.06 89.5135 51.478 90.6395 51.2428C92.0006 50.9534 93.4084 51.2203 94.6005 51.977C95.7877 52.7393 96.6181 53.911 96.9378 55.2738C97.3131 56.8885 96.9217 58.5261 95.8638 59.7744C95.1281 60.6426 94.1467 61.2245 93.0208 61.4597C91.6596 61.7491 90.2518 61.4822 89.0598 60.7255C87.8725 59.9632 87.0421 58.7915 86.7224 57.4287C86.3471 55.814 86.7386 54.1764 87.7964 52.9281ZM87.2165 52.4367C86.0625 53.7985 85.5444 55.6797 85.9946 57.5821C86.7452 60.8114 89.9707 62.8721 93.1962 62.1933C94.5207 61.9119 95.6407 61.2134 96.4485 60.2602C97.6025 58.8983 98.1207 57.0172 97.6704 55.1147C96.9198 51.8854 93.6944 49.8247 90.4689 50.5035C89.1444 50.7849 88.0244 51.4834 87.2165 52.4367Z" fill="white" fill-opacity="0.8"/>
<path d="M83.7496 94.7152C84.4853 93.8471 85.4666 93.2651 86.5926 93.0299C89.4094 92.4337 92.2272 94.2464 92.8861 97.0666C93.2614 98.6813 92.87 100.319 91.8121 101.567C91.0764 102.435 90.095 103.017 88.9691 103.253C87.6079 103.542 86.2001 103.275 85.0081 102.518C83.8208 101.756 82.9904 100.584 82.6708 99.2215C82.2955 97.6068 82.6869 95.9692 83.7448 94.7209M83.1697 94.2238C82.0156 95.5856 81.4975 97.4668 81.9477 99.3692C82.6983 102.599 85.9238 104.659 89.1493 103.98C90.4738 103.699 91.5938 103.001 92.4016 102.047C93.5557 100.685 94.0738 98.8043 93.6235 96.9018C92.873 93.6725 89.6475 91.6118 86.422 92.2906C85.0975 92.572 83.9775 93.2705 83.1697 94.2238Z" fill="white" fill-opacity="0.8"/>
<path d="M70.0003 94.4795C70.5533 93.8269 71.2968 93.3846 72.1451 93.2066C73.1766 92.9888 74.2361 93.1847 75.1393 93.7649C76.0367 94.3401 76.6638 95.2226 76.9046 96.2553C77.1892 97.4714 76.8942 98.713 76.096 99.6549C75.543 100.307 74.7995 100.75 73.9464 100.933C71.8208 101.384 69.685 100.013 69.1869 97.8848C68.9023 96.6687 69.1973 95.4271 69.9955 94.4851M69.4204 93.988C68.5116 95.0605 68.1053 96.5393 68.4533 98.0333C69.0431 100.571 71.5817 102.195 74.116 101.662C75.1581 101.444 76.0354 100.89 76.6701 100.141C77.5789 99.069 77.9852 97.5902 77.6372 96.0962C77.0475 93.5589 74.5088 91.934 71.9745 92.4673C70.9324 92.6859 70.0551 93.2391 69.4204 93.988Z" fill="white" fill-opacity="0.8"/>
</g>
<defs>
<clipPath id="clip0_99_230">
<rect width="149.697" height="120.098" fill="white" transform="translate(0 114.205) rotate(-49.7209)"/>
</clipPath>
</defs>
</svg>
