<?xml version="1.0" encoding="UTF-8"?><svg id="Lag_1" xmlns="http://www.w3.org/2000/svg" width="513.8" height="1018.18" viewBox="0 0 513.8 1018.18"><defs><style>.cls-1{fill:red;}</style></defs><path class="cls-1" d="M232.31,955.23c-27.17,2.19-60.54,1.26-73.7-22.61-17.84-32.36,20-71.36,11.84-107.39-5.03-22.22-25.91-36.57-39.52-54.84-13.94-18.7-20.47-42.78-17.87-65.96.26-2.32.65-4.74,2.03-6.63,5.26-7.23,16.82.23,20.23,8.5s5.96,19.07,14.69,21.01c8.13,1.81,15.37-6.28,17.34-14.37,9.85-40.29-56.62-74.61-38.98-112.14,5.52-11.74,18.12-18.73,24.4-30.07,10.43-18.83.51-41.76-3.61-62.88-4.12-21.13,5.45-50.4,26.9-48.61,14.95,1.25,23.89,18.04,24.46,33.03s-4.29,29.79-3.73,44.78c1.45,38.68,38.02,70.19,36.67,108.87-.53,15.19-6.99,29.5-9.74,44.44s-.61,32.71,11.81,41.47c12.67,8.94,31.35,4.22,42.16-6.89,10.81-11.11,15.32-26.85,17.9-42.14,2.53-15.03,3.52-30.82-1.46-45.23-6.33-18.29-21.9-33.39-23.35-52.69-1.31-17.5,9.37-33.36,14.51-50.14,7.83-25.55,2.01-54.86-14.99-75.48-17.1-20.74-44.12-32.64-57.61-55.9-17.01-29.34-6.91-67.09,9.78-96.61,13.82-24.44,32.55-49.19,29.87-77.14-1.23-12.82-6.97-24.73-9.86-37.28-6.58-28.57,2.92-60.3,24.13-80.55,2.69-2.57,5.68-5.03,9.28-5.95,10.09-2.59,19.15,8.32,20.14,18.69.99,10.37-2.96,20.54-3.83,30.93-2.59,30.59,21.39,60.28,13.75,90.02-4.78,18.6-21.26,33-23.92,52.02-3.65,26.13,19.41,47.48,29.62,71.8,8.22,19.57,8.02,41.56,6.51,62.73-.63,8.81-1.29,18.38,3.59,25.74,3.66,5.53,9.83,8.8,14.64,13.37,12.68,12.03,14.58,31.69,11.89,48.96s-9.11,33.95-10.06,51.4c-2.24,41.02,25.76,82.04,13.21,121.17-9.26,28.87-38.51,47.98-47.45,76.95-8.75,28.35,6.82,62.06,34.08,73.78,7.86,3.38,18.11,4.6,24.02-1.58,9.32-9.74-.82-25.19-1.95-38.62-1.85-21.96,21.26-37.34,29.32-57.85,14.4-36.62-20-85.8,7.32-114.11,5.36-5.55,12.7-9.49,16.09-16.41,4.07-8.32,1.18-18.24-2.24-26.84s-7.4-17.78-5.29-26.79,13.87-15.97,20.88-9.92c3.05,2.63,4.22,6.77,5.24,10.67,13.98,53.48,26.88,114.48-3.43,160.7-6.08,9.27-13.85,17.8-16.83,28.47-5.14,18.37,5.11,37.03,9.96,55.48,13.58,51.75-16.92,105.9-57.1,141.23-8.36,7.35-17.21,14.22-27.01,19.49-33.44,18.01-77.19,14.81-107.65-7.88"/></svg>