<svg width="468" height="665" viewBox="0 0 468 665" fill="none" xmlns="http://www.w3.org/2000/svg">
<path d="M-42.4563 480.011C-31.8515 496.259 -19.0317 512.38 -0.805769 520.226C15.3127 527.163 32.9664 526.259 47.0271 515.803C55.0257 509.852 61.4127 502.041 69.5072 496.21C73.6804 493.21 78.3522 491.32 83.0105 489.212C87.6689 487.103 92.3141 484.252 96.3019 480.777C104.101 473.97 109.995 465.339 115.939 456.931C121.882 448.524 128.681 439.696 135.659 431.577C142.638 423.458 150.116 415.563 157.926 408.124C165.257 401.133 172.905 393.692 182 388.996C198.343 380.554 217.514 382.764 235.245 384.944C257.415 387.646 279.563 390.4 301.749 393.123C309.856 394.129 321.293 393.661 321.596 382.902C321.835 374.16 317.028 364.659 312.166 357.592C289.993 325.34 246.654 321.757 211.51 324.254C192.146 325.637 173.016 329.291 154.261 334.021C145.034 336.333 135.868 338.922 126.762 341.628C117.657 344.334 107.933 346.91 98.8755 350.363C94.2899 352.119 90.4265 354.74 87.2719 358.533C84.1172 362.326 81.4036 366.389 77.3938 369.553C69.5351 375.72 59.9312 379.053 51.1269 383.549C42.3227 388.046 34.839 394.078 27.989 401.308C21.139 408.538 15.3632 416.026 7.91626 422.226C2.32249 426.915 -8.08356 434.326 -15.8362 429.728C-23.5887 425.13 -12.1696 412.128 -8.49762 408.741C6.30453 395.138 27.3011 392.978 45.9207 387.634C55.8525 384.794 65.1533 380.557 74.2318 375.678C78.572 373.332 83.1185 371.083 87.2106 368.345C90.6804 366.037 93.4932 362.583 93.6207 358.222C93.8356 351.105 87.0482 345.901 80.6411 344.686C71.6468 343.011 64.0817 349.829 57.5081 354.742C27.5177 377.145 -20.3789 363.566 -43.7495 397.138C-48.2231 403.555 -50.9826 411.194 -50.8869 419.144C-50.8383 422.677 -46.3764 425.246 -44.0061 421.882C-40.5744 416.984 -38.5165 411.411 -36.5102 405.815C-34.504 400.218 -32.703 394.687 -28.8118 390.406C-24.1901 385.345 -17.0418 383.938 -10.9058 381.503C-4.15022 378.836 2.11429 374.989 8.01634 370.807C19.6594 362.606 30.2632 352.94 43.3789 347.07C56.4945 341.2 69.6491 338.608 82.9948 335.045C96.3404 331.482 110.035 326.297 122.371 318.723C134.707 311.149 146.488 301.264 157.581 291.405C180.483 271.049 202.454 249.405 222.646 226.296C232.145 215.446 241.03 203.907 247.503 190.916C252.974 179.937 255.778 165.775 247.161 155.249C239.617 146.029 227.626 146.448 218.219 151.884C207.216 158.264 198.866 168.82 190.547 178.204C180.375 189.623 170.649 201.439 161.357 213.598C152.065 225.757 143.692 238.1 134.358 249.965C125.024 261.829 114.711 272.869 102.375 281.655C90.7642 289.896 77.8647 296.118 64.71 301.495C37.4613 312.604 9.09054 320.611 -17.2165 333.951C-30.303 340.584 -43.2216 348.033 -55.107 356.657C-64.3782 363.393 -73.0859 371.482 -78.2793 381.88C-80.7375 386.788 -82.0959 392.229 -82.2191 397.765C-82.3272 402.635 -74.7585 403.612 -74.6626 398.687C-74.426 387.359 -68.0814 378.041 -60.0931 370.624C-50.6229 361.796 -39.2596 354.899 -28.0747 348.505C-15.487 341.287 -2.37849 334.964 11.1045 329.555C24.0981 324.339 37.4098 319.886 50.5765 315.089C76.5707 305.635 102.311 294.451 122.382 274.944C143.396 254.521 158.691 228.861 176.97 206.098C186.188 194.653 195.769 183.542 205.779 172.809C212.322 165.758 220.855 155.876 231.346 155.473C236.619 155.266 241.062 158.538 243.28 163.257C245.956 168.954 245.351 175.3 243.386 181.028C238.993 193.802 230.225 205.248 221.743 215.516C202.879 238.353 181.481 259.344 159.601 279.245C148.977 288.927 138.163 298.532 126.418 306.847C114.673 315.163 102.012 321.522 88.1717 325.676C75.6348 329.446 62.7445 331.926 50.3253 336.126C37.1206 340.593 25.8223 347.733 14.8098 356.119C9.26417 360.344 3.76643 364.629 -2.1268 368.377C-8.02005 372.126 -14.6146 374.631 -21.2963 377.108C-27.1335 379.272 -32.3871 382.248 -36.2099 387.261C-39.5701 391.644 -41.5467 396.955 -43.3819 402.12C-45.2171 407.285 -47.0463 412.741 -50.2862 417.355L-43.4055 420.092C-43.6014 403.54 -30.6216 391.324 -16.4303 385.35C1.0078 378 20.4769 377.516 38.531 372.23C47.6134 369.576 55.9898 365.552 63.4954 359.83C68.848 355.726 76.4881 348.882 83.4489 353.98C91.5831 359.945 76.2205 365.902 72.1484 368.1C63.4288 372.824 54.5042 377.089 44.9841 379.961C26.8167 385.468 7.39849 387.55 -8.42148 398.786C-15.4142 403.739 -21.5351 410.552 -24.5641 418.7C-27.3912 426.294 -25.1657 434.938 -16.7422 437.593C0.993172 443.209 16.6235 425.276 26.9136 413.763C33.1206 406.816 39.3227 399.742 47.1329 394.564C54.9432 389.385 64.4364 386.076 72.872 381.48C76.8691 379.309 80.7852 376.875 84.1706 373.815C87.8905 370.489 90.4651 366.373 93.7033 362.644C96.9416 358.916 101.482 357.426 105.998 355.987C110.515 354.549 114.748 353.238 119.111 351.889C136.859 346.421 154.732 341.312 172.936 337.546C190.993 333.797 209.427 331.288 227.981 331.272C246.535 331.255 263.682 333.146 279.94 340.661C296.197 348.177 310.474 362.251 313.611 380.03C313.94 381.896 314.252 383.941 312.558 385.127C310.865 386.314 308.213 386.135 306.293 386.027C301.222 385.68 296.131 384.825 291.105 384.212C280.431 382.893 269.738 381.589 259.065 380.27C240.585 378 221.566 374.325 202.946 375.672C194.419 376.278 185.89 378.294 178.348 382.276C169.525 386.951 162.058 393.69 154.821 400.475C139.986 414.4 126.367 429.648 114.291 446.025C108.223 454.237 102.765 463.011 95.8103 470.554C92.4332 474.229 88.5081 477.621 84.1569 480.074C79.8056 482.528 75.0836 484.032 70.7239 486.394C54.9285 494.957 45.0036 513.911 26.2242 516.793C9.33409 519.382 -7.02794 510.443 -18.6784 498.534C-25.53 491.514 -31.2492 483.493 -36.6093 475.317C-39.3016 471.173 -45.2076 475.915 -42.5116 480.023L-42.4563 480.011Z" fill="#0F2537"/>
<path d="M2.24277 332.69C24.4645 318.544 42.5547 299.863 60.9816 281.24C70.596 271.544 80.617 262.277 91.0447 253.439C100.642 245.296 111.861 238.056 119.29 227.677C125.881 218.426 128.234 207.049 128.415 195.732C128.596 184.416 128.638 171.31 122.346 161.682C116.522 152.762 105.554 151.316 96.7317 155.992C87.9089 160.667 81.9038 169.32 77.4917 178.276C67.8676 197.809 66.4231 220.78 55.3145 239.662C42.1921 261.951 16.543 272.08 -3.58686 286.589C-8.26795 289.96 -12.5977 293.773 -17.2591 297.129C-21.9205 300.485 -27.231 303.834 -32.3409 306.99C-43.0773 313.584 -54.2411 319.602 -64.4934 326.924C-81.5295 339.097 -97.2797 355.749 -102.938 376.543C-109.032 398.929 -101.324 421.352 -89.7225 440.869C-82.959 452.218 -75.1515 462.899 -65.4799 471.962C-61.0225 476.14 -56.2148 480.072 -50.7192 482.767C-46.804 484.691 -42.5515 485.626 -38.3347 486.556C-33.1273 487.679 -28.1818 489.24 -23.3265 491.495C-18.8484 493.56 -16.1801 486.453 -20.6422 484.408C-25.4816 482.173 -30.443 480.591 -35.627 479.417C-39.4715 478.55 -43.2951 477.831 -46.8994 476.216C-57.4225 471.534 -66.1483 461.356 -73.0101 452.346C-85.9867 435.302 -98.5357 413.265 -97.6068 391.262C-96.7547 370.696 -84.2074 353.256 -69.2299 340.397C-51.8729 325.478 -30.5349 316.198 -12.0588 302.844C-7.53141 299.562 -3.32343 295.88 1.20398 292.598C6.18019 288.991 11.3566 285.716 16.5846 282.465C26.5403 276.264 36.7306 270.237 45.647 262.571C54.5635 254.906 61.2754 246.049 65.9883 235.411C70.1056 226.166 72.6953 216.337 75.4878 206.641C78.2803 196.944 81.2587 186.674 86.3715 177.749C90.4287 170.649 96.4654 162.56 105.085 161.061C117.321 158.972 119.716 174.165 120.4 183.055C121.206 193.551 121.307 204.577 117.626 214.49C113.455 225.646 104.12 232.826 95.18 240.019C85.194 248.078 75.5114 256.519 66.2195 265.368C48.3821 282.309 32.1873 300.986 12.6153 316.033C7.73118 319.796 2.65538 323.318 -2.56037 326.625C-6.65725 329.236 -1.82706 335.214 2.23046 332.634L2.24277 332.69Z" fill="#0F2537"/>
<path d="M169.606 384.79C114.598 390.182 61.9075 411.157 20.506 447.702C11.6656 455.504 1.22063 464.683 2.08451 477.755C2.89844 489.916 13.9848 496.475 25.1522 493.207C31.5374 491.327 36.5977 486.736 41.6295 482.593C46.6613 478.451 52.3126 474.076 57.5842 469.709C68.2885 460.815 77.5071 451.106 84.4013 438.927C88.2273 432.141 91.8629 425.279 97.0688 419.457C99.7425 416.474 102.727 413.8 105.775 411.206C108.623 408.804 111.594 405.911 114.838 404.046C117.66 402.419 120.992 401.957 124.126 401.326C127.516 400.654 130.846 399.867 134.18 399.044C141.278 397.251 148.348 395.382 155.572 394.11C160.37 393.267 159.225 385.695 154.407 386.554C142.788 388.61 131.487 391.952 119.957 394.362C113.797 395.637 109.463 398.273 104.635 402.187C99.8077 406.102 94.75 410.494 90.4714 415.38C82.0161 425.037 77.6563 437.49 69.5672 447.444C61.4781 457.399 50.6058 465.477 40.4821 473.647C35.7565 477.447 31.1878 482.17 25.6786 484.826C21.4432 486.86 15.5059 487.727 12.0305 483.651C8.55521 479.574 9.2304 473.761 11.2459 469.468C13.7486 464.131 18.3415 460.043 22.6074 456.151C42.2976 438.225 64.876 423.598 89.3306 412.98C115.127 401.784 142.691 395.108 170.787 392.366C175.654 391.893 174.473 384.316 169.621 384.81L169.606 384.79Z" fill="#0F2537"/>
<path d="M85.0798 351.828C106.436 332.803 125.501 310.985 149.044 294.542C161.574 285.798 175.126 279.022 189.376 273.526C203.626 268.03 217.832 262.437 232.534 259.365C247.237 256.293 261.159 257.61 275.339 259.049C282.146 259.716 288.991 260.713 295.582 262.765C297.12 263.242 298.636 263.77 300.144 264.37C301.322 264.839 303.629 265.391 304.597 266.323C306.091 267.753 304.881 266.195 305.05 267.174C305.153 267.747 304.772 268.641 304.606 269.199C304.165 270.665 303.537 272.017 302.668 273.267C295.805 283.227 282.139 284.49 271.042 283.771C257.562 282.887 244.614 281.055 231.619 285.584C223.997 288.253 217.054 292.38 210.014 296.223C202.974 300.067 195.683 303.717 188.572 307.552C174.653 315.078 162 323.789 151.161 335.38C147.87 338.921 154.078 343.439 157.35 339.914C167.565 328.952 179.885 320.834 193.028 313.828C199.868 310.177 206.78 306.697 213.575 302.951C220.371 299.204 226.577 295.566 233.614 292.97C247.349 287.917 261.219 291.308 275.45 291.559C287.485 291.761 300.848 288.543 308.371 278.483C311.558 274.206 315.059 266.206 310.725 261.536C308.631 259.274 305.121 258.141 302.344 257.079C298.856 255.731 295.26 254.732 291.629 253.892C277.337 250.576 261.831 249.735 247.272 250.04C231.735 250.37 217.308 255.484 202.837 260.501C187.581 265.784 172.465 271.446 158.49 279.508C128.448 296.841 105.939 322.977 80.3283 345.788C76.7106 349 81.4817 355.024 85.1192 351.797L85.0798 351.828Z" fill="#0F2537"/>
<path d="M222.634 330.62C230.04 323.602 238.88 316.849 248.738 313.675C254.245 311.905 259.159 313.426 264.339 315.685C269.519 317.944 274.158 319.848 279.529 320.611C300.831 323.678 320.741 311.113 338.392 301.366C350.588 294.624 362.763 287.899 374.959 281.157C379.208 278.818 385.062 274.576 390.136 276.985C394.091 278.878 396.329 283.744 396.414 287.968C396.633 298.736 386.109 307.454 379.213 314.263C372.316 321.071 364.924 327.784 356.856 333.364C348.787 338.945 340.214 343.127 330.771 345.086C319.889 347.34 308.8 346.549 297.936 344.103C293.141 343.012 292.407 350.608 297.151 351.675C317.871 356.353 338.137 353.76 356.195 342.868C364.993 337.557 372.884 330.906 380.313 323.837C388.422 316.127 398.252 307.831 402.295 297.039C406.008 287.166 402.949 273.683 392.058 269.588C386.135 267.365 380.164 269.603 374.964 272.405C368.464 275.917 362.004 279.56 355.532 283.147C343.396 289.842 331.392 296.823 319.059 303.15C309.415 308.087 299.111 312.6 288.1 313.319C281.831 313.73 275.938 312.433 270.151 309.937C263.967 307.267 257.833 304.457 250.958 305.319C244.083 306.181 238.213 309.878 232.503 313.251C226.793 316.624 222.391 320.264 217.827 324.591C214.325 327.907 219.077 333.948 222.618 330.6L222.634 330.62Z" fill="#0F2537"/>
<path d="M128.223 260.23C127.245 255.735 129.32 250.345 130.295 245.997C131.418 240.908 132.665 235.852 134.121 230.858C137.031 220.904 140.808 211.111 146.711 202.572C153.358 192.948 162.647 186.033 171.69 178.889C180.733 171.745 190.311 163.618 199.201 155.515C206.396 148.959 216.224 141.55 216.298 130.745C216.369 121.711 210.352 113.6 202.38 109.734C183.761 100.629 160.21 111.411 149.928 127.537C143.161 138.141 138.773 150.518 134.655 162.385C130.536 174.252 126.602 186.956 121.609 198.897C119.734 203.407 126.84 206.226 128.716 201.717C136.946 182.05 142.193 161.224 150.994 141.79C155.21 132.466 160.747 123.629 170.087 118.836C177.996 114.791 188.332 112.579 197.048 115.721C204.355 118.348 211.024 126.268 207.95 134.32C206.241 138.796 202.359 142.12 198.962 145.286C194.866 149.109 190.722 152.872 186.478 156.55C177.905 164.04 168.996 171.11 160.103 178.2C151.958 184.694 144.331 191.757 138.751 200.661C133.172 209.566 129.239 219.81 126.384 230.113C124.914 235.414 123.654 240.776 122.485 246.13C121.423 250.974 119.592 256.267 120.716 261.268C121.839 266.27 129.293 265.044 128.223 260.23Z" fill="#0F2537"/>
<path d="M70.2522 211.534C61.2954 201.147 65.2045 185.384 62.0663 173.012C58.3012 158.158 44.2965 147.373 28.821 150.243C13.3456 153.112 4.35566 167.749 4.71439 183.255C5.09458 200.119 14.1971 214.321 21.2662 229.162C25.1021 237.243 28.2937 245.968 29.1006 254.892C29.7571 262.133 27.2641 267.724 21.2061 271.67C17.1411 274.321 21.9516 280.314 25.9969 277.679C37.4392 270.194 38.1055 257.508 35.0263 245.089C33.0304 237.016 29.9144 229.475 26.174 222.038C22.4336 214.602 17.962 206.733 15.1463 198.559C10.8724 186.175 10.0938 169.498 21.8709 161.222C34.5025 152.364 51.3149 160.092 54.7507 174.815C57.9742 188.626 54.2679 204.522 64.3537 216.204C67.5772 219.924 73.4955 215.239 70.256 211.498L70.2522 211.534Z" fill="#0F2537"/>
<path d="M-19.1124 307.516C-2.15643 285.676 8.01955 258.561 9.4135 230.683C10.1159 216.952 8.73066 201.774 -1.17372 191.127C-9.84219 181.788 -22.9587 176.879 -35.4504 178.648C-48.8198 180.526 -60.2973 189.742 -66.0926 201.767C-71.8879 213.792 -71.2118 228.847 -61.168 238.499C-56.2279 243.242 -49.6054 246.382 -45.4117 251.885C-41.218 257.387 -42.0907 264.93 -44.3259 271.168C-49.4561 285.48 -59.8764 297.031 -68.9732 308.87C-80.2617 323.57 -90.8142 338.831 -100.536 354.608C-104.659 361.303 -108.6 368.147 -109.009 376.271C-109.419 384.395 -107.302 391.651 -105.117 399.115C-104.549 401.119 -101.829 401.867 -100.097 401.174C-98.0053 400.325 -97.5655 398.173 -98.1336 396.168C-99.8614 390.207 -101.663 383.911 -101.449 377.68C-101.21 370.675 -97.8873 364.914 -94.3309 359.162C-86.2833 346.128 -77.711 333.43 -68.6018 321.122C-60.1235 309.677 -50.4177 298.925 -43.2321 286.546C-37.4071 276.496 -31.1696 262.645 -37.0763 251.038C-42.9829 239.432 -58.7578 236.315 -61.6559 223.195C-64.386 210.89 -57.4548 198.353 -47.6697 191.535C-37.8847 184.717 -24.7593 184.147 -14.2222 190.259C-2.52869 197.056 1.59526 209.494 1.943 222.321C2.72166 251.351 -7.82036 280.428 -25.3372 302.977C-28.3174 306.828 -22.1283 311.362 -19.1481 307.511L-19.1124 307.516Z" fill="#0F2537"/>
<path d="M113.545 460.183C123.677 450.893 131.303 439.308 141.483 430.079C147.16 424.93 152.972 419.707 160.157 416.731C166.134 414.259 172.736 413.418 179.199 413.573C193.173 413.866 207.101 417.571 220.796 420.379C228.817 422.044 236.841 423.674 244.862 425.338C252.106 426.836 259.423 428.669 266.82 428.865C281.345 429.243 295.158 422.916 308.226 417.51C315.391 414.55 322.353 410.932 329.66 408.351C335.02 406.436 343.666 405.374 346.912 411.665C350.157 417.956 345.027 424.962 341.046 429.414C336.351 434.665 330.999 439.455 325.302 443.571C313.771 451.913 300.432 456.453 286.023 455.655C256.987 454.069 225.979 437.739 198.804 454.752C194.691 457.343 199.521 463.321 203.595 460.762C215.678 453.193 230.964 453.881 244.608 456.141C258.252 458.401 272.136 462.697 286.243 463.277C301.427 463.917 315.416 459.546 327.856 451.134C334.146 446.874 339.816 441.796 345.024 436.301C349.726 431.34 354.194 425.845 355.213 418.808C356.231 411.771 353.391 405.222 347.289 401.765C340.762 398.058 333.293 398.902 326.583 401.303C318.917 404.039 311.576 407.828 304.056 410.908C296.536 413.988 289.647 416.891 282.184 419.074C274.72 421.256 267.53 421.682 259.888 420.533C251.593 419.251 243.369 417.29 235.134 415.599C219.671 412.43 204.1 408.398 188.441 406.598C180.826 405.724 172.922 405.538 165.447 407.14C157.177 408.917 149.999 412.87 143.496 418.154C136.992 423.437 130.751 429.494 125.225 435.964C119.699 442.433 114.856 448.588 108.774 454.158C105.204 457.43 109.975 463.455 113.565 460.167L113.545 460.183Z" fill="#0F2537"/>
<path d="M46.4172 516.288C52.6203 514.946 58.9123 515.008 65.2292 514.657C71.5461 514.306 77.7971 513.024 83.5595 510.363C90.0436 507.356 95.8499 503.055 101.514 498.736C107.177 494.417 113.269 489.626 119.073 484.999C131.015 475.478 142.754 465.66 154.297 455.639C159.752 450.896 164.966 445.691 170.788 441.409C175.398 438.029 181.004 435.656 186.676 438.048C197.741 442.724 199.042 456.102 195.297 465.935C190.343 478.894 178.396 488.288 168.584 497.454C148.28 516.426 124.89 535.565 95.8821 537.888C68.8037 540.048 44.0932 523.383 18.1603 517.979C13.3375 516.975 12.5877 524.552 17.3749 525.551C42.1586 530.724 65.0248 545.682 90.7968 545.677C121.349 545.694 147.241 527.313 168.767 507.694C174.586 502.399 180.361 497.009 185.953 491.47C191.183 486.284 196.205 480.838 199.768 474.328C205.624 463.631 207.395 449.868 199.739 439.296C196.422 434.733 191.55 431.246 186.092 429.929C179.821 428.442 173.737 430.376 168.486 433.678C162.21 437.633 156.911 443.136 151.354 447.992C145.125 453.417 138.847 458.783 132.506 464.068C118.792 475.525 104.938 487.127 90.314 497.443C83.5181 502.239 76.3257 505.81 67.9435 506.76C60.364 507.626 52.7311 507.094 45.2361 508.712C40.491 509.743 41.6206 517.295 46.4013 516.268L46.4172 516.288Z" fill="#0F2537"/>
<path d="M117.819 541.27C124.332 540.075 130.327 541.782 136.329 544.467C142.656 547.318 148.97 550.475 155.154 553.67C167.982 560.315 182.078 570.045 196.983 569.89C210.444 569.741 222.2 558.533 222.266 544.852C222.295 538.309 219.925 531.582 215.47 526.681C210.629 521.335 204.098 518.875 197.474 516.621C191.215 514.502 185.153 511.701 178.781 509.966C172.41 508.231 165.489 508.147 158.846 509.905C154.189 511.127 155.315 518.715 160.011 517.461C165.058 516.124 170.045 515.719 175.198 516.853C180.068 517.917 184.705 520.019 189.343 521.76C195.092 523.926 201.571 525.312 206.685 528.902C211.446 532.249 214.322 537.753 214.663 543.509C215.004 549.265 212.133 555.028 207.488 558.566C202.844 562.105 196.7 562.875 190.803 561.614C177.614 558.795 165.747 550.368 153.76 544.494C141.772 538.62 129.975 531.251 116.693 533.682C111.891 534.562 113.037 542.134 117.858 541.239L117.819 541.27Z" fill="#0F2537"/>
</svg>
