<svg width="170" height="247" viewBox="0 0 170 247" fill="none" xmlns="http://www.w3.org/2000/svg">
<path d="M180.691 86.2559C180.849 79.8797 177.658 75.703 174.041 72.6573C171.741 70.7172 169.176 69.1313 167.285 66.5046C165.543 64.0483 164.744 60.8582 164.293 57.441C163.497 51.2414 163.785 44.2121 161.403 38.8445C159.204 33.8937 154.224 34.0349 150.716 38.6491C146.487 44.1865 147.254 52.5177 148.647 58.4225C150.281 65.3401 153.243 71.2271 156.249 77.0197C156.502 77.534 157.212 78.3772 157.24 79.0182C157.383 81.4581 156.265 80.7738 155.36 80.5402C154.129 80.2226 152.943 79.6527 151.875 78.9282C149.287 77.2045 147.174 74.4675 145.844 71.0877C143.647 65.53 144.505 58.3839 142.399 52.7706C140.007 46.3968 133.936 46.5736 130.488 41.7494C127.039 36.9252 126.165 29.306 124.342 22.9733C122.814 17.6674 120.308 12.1092 115.909 10.4463C112.389 9.11598 107.678 10.3831 104.712 14.3974C101.4 18.8509 101.895 24.8674 104.082 28.8909C105.312 31.1622 106.949 32.8257 108.66 34.4289C110.275 35.9546 115.647 40.0603 114.324 43.9176C113.285 46.8976 109.592 46.3147 107.989 45.7164C104.849 44.5631 102.186 42.0807 99.978 39.1872C95.9659 33.9272 93.3969 27.1909 90.5083 20.7947C85.362 9.30052 76.138 -4.80353 63.4418 1.66561C58.7524 4.04734 55.5868 10.255 58.6371 15.4254C60.0051 17.7588 62.0652 19.056 64.1647 20.1257C66.4506 21.2963 69.7794 22.8415 69.7821 26.7241L71.3113 24.6891C65.3244 25.3629 59.236 24.1093 53.4147 28.2588C49.11 31.3207 46.6004 36.4828 46.9027 42.4232C47.0811 45.8493 48.1569 52.3852 51.6259 52.0389C53.6272 51.8422 55.3576 48.8028 56.8804 47.2415C59.0849 44.9846 61.497 43.0454 64.0691 41.8339C66.0927 40.8771 68.1525 40.3786 70.222 40.0674C72.8251 39.709 75.77 39.1483 78.1688 40.0312C81.2727 41.1751 83.7166 44.1293 86.0933 46.6701C87.2758 47.9258 88.4582 49.1815 89.6407 50.4371C90.9425 51.8292 92.682 53.0965 93.7314 54.7932C95.1132 56.9981 93.4978 59.1429 91.5338 59.719C89.9288 60.1764 88.3757 59.4589 86.9345 58.9815C84.6252 58.201 82.1573 57.5115 79.6385 58.8159C75.1132 61.1607 74.6658 67.9111 77.1044 71.709C80.3741 76.7775 85.9517 74.5457 90.5718 71.9085C96.62 68.4513 102.514 66.1163 108.796 66.0203C111.819 65.9814 114.775 66.427 117.609 67.343C119.159 67.8484 120.806 68.3524 122.012 69.6669C122.417 70.1149 123.378 71.1814 123.319 72.0111C123.157 74.1348 121.517 74.0549 120.509 74.2176C115.793 74.9815 109.358 75.2228 107.041 82.7057C105.219 88.5733 108.712 92.3263 112.607 92.7237C117.893 93.2687 123.42 86.6667 128.449 88.3599C131.186 89.2773 132.752 92.7179 133.542 96.0907C133.863 97.4674 134.098 98.9539 134.217 100.437C134.508 104.103 133.242 106.391 130.462 107.734C123.622 111.04 117.227 107.383 112.606 102.309C111.013 100.551 109.224 98.8753 106.891 99.0128C104.757 99.1226 102.55 100.64 101.581 103.426C100.611 106.213 101.268 108.68 102.147 110.887C102.745 112.388 103.588 113.688 103.916 115.41C104.086 116.325 104.364 118.166 103.409 118.95C102.086 120.034 100.866 117.951 100.401 116.906C99.1729 114.107 98.6548 111.175 96.486 109.4C94.3171 107.626 91.3166 107.354 88.5707 107.068C85.8248 106.782 82.9532 106.385 80.649 104.312C78.1414 102.054 76.4739 98.5607 75.1835 94.9533C72.7891 88.2885 71.7036 80.6674 68.4466 74.6515C66.3243 70.7503 62.3263 67.1576 58.0662 69.1483C53.1297 71.4398 52.5579 78.8975 54.2394 83.6092C56.1425 88.959 63.4381 92.795 61.3453 100.309C60.7917 102.305 59.6193 103.931 57.9598 103.476C56.3003 103.022 55.2753 100.856 54.3878 99.2804C52.5414 96.0314 50.6205 92.9216 48.4483 90.0375C44.5737 84.9185 39.8895 79.6436 34.6892 76.7441C31.2624 74.8303 26.0156 74.5067 23.8927 80.6401C21.7698 86.7734 25.2941 92.2773 28.9382 94.6962C30.8652 95.9854 35.7576 97.4587 36.0893 100.739C36.3571 103.37 33.7648 104.735 32.2545 104.9C30.2894 105.106 28.3487 104.394 26.5262 103.897C20.9745 102.36 14.9424 100.064 8.90897 102.865C4.58812 104.866 0.458392 109.796 0.836422 115.967C1.21445 122.138 5.57025 125.691 10.032 125.838C16.4249 126.061 22.4175 120.873 28.7249 119.332C30.1649 118.99 34.1045 117.867 33.9112 121.013C33.8559 121.976 32.9945 123.443 32.5121 124.19C31.0341 126.476 28.9904 128.035 27.0862 129.577C23.7252 132.275 19.8784 135.059 18.0877 139.905C16.1904 145.014 17.6515 149.906 20.761 152.451C24.2241 155.272 28.8264 154.875 32.689 151.356C37.0362 147.381 39.781 140.932 41.3543 134.684C41.7886 133 42.0215 130.974 42.8713 129.477C44.0308 127.452 46.1216 126.909 47.7639 126.382C51.2679 125.226 56.1045 124.519 57.7082 129.158C58.9731 132.865 56.297 135.977 54.1373 138.509C52.23 140.737 50.1513 143.106 49.2252 146.247C47.6199 151.722 50.0056 157.671 53.9009 158.967C58.152 160.38 62.2456 155.89 64.636 151.041C67.4747 145.277 68.4407 138.238 72.1369 133.118C77.5295 125.689 82.2099 133.973 86.9446 135.908C91.9744 137.971 97.5328 134.915 102.827 134.38C104.295 134.23 105.882 134.217 107.224 134.854C109.234 135.821 108.491 138.402 107.242 140.325C105.282 143.358 102.164 144.587 99.4633 145.026C93.8972 145.94 88.666 143.534 83.0456 145.333C78.7758 146.687 73.1954 151.849 75.0923 158.122C76.8731 164.021 82.3999 163.783 86.7647 163.483C89.2198 163.324 95.4923 163.49 92.1369 168.486C90.5428 170.848 88.4811 172.851 87.5336 175.776C85.4693 182.056 89.8786 186.6 94.2848 185.465C99.5175 184.122 103.261 177.694 105.462 171.633C108.02 164.635 109.344 157.107 112.913 150.608C116.483 144.108 121.651 138.971 127.227 136.37C133.249 133.539 139.653 133.871 144.892 136.992C147.386 138.48 149.63 140.564 151.417 143.217C152.564 144.912 153.921 147.137 152.728 149.813C151.786 151.894 149.879 153.224 148.332 154.278C142.788 158.102 136.855 160.665 131.677 165.614C129.861 167.338 127.354 169.569 126.908 172.57C126.529 175.087 127.724 176.821 129.225 177.816C130.726 178.81 133.831 178.449 134.824 180.29C135.817 182.13 133.222 183.732 132.033 184.746C130.655 185.895 129.266 187.016 127.841 188.048C122.152 192.205 116.133 195.326 110.037 197.398C103.94 199.47 97.7381 200.378 91.6903 200.165C89.1234 200.084 86.5724 199.716 83.9693 200.075C81.9126 200.336 78.5725 201.006 76.9613 203.284C74.7208 206.43 77.268 209.358 79.1342 210.209C81.7951 211.423 85.5304 211.093 87.8036 213.211C89.0298 214.372 88.1108 215.614 87.0257 217.051C85.2867 219.375 82.9119 222.142 80.5111 221.866C77.6747 221.557 75.46 219.586 72.5288 219.57C69.5976 219.553 66.1575 220.91 63.5392 219.231C60.9208 217.552 58.2144 211.124 54.4817 214.439C52.4284 216.259 51.5471 219.676 50.8978 222.493C50.1964 225.586 49.5653 228.856 49.7969 231.927C50.2452 237.825 53.5548 239.445 57.7605 236.991C59.8054 235.802 62.0918 233.751 64.27 233.917C66.8476 234.107 68.9421 236.918 70.8138 238.721C72.482 240.34 74.2951 241.996 76.5191 242.358C78.7432 242.721 81.4229 242.065 83.7852 241.143C89.021 239.113 93.8773 235.111 98.8668 232.015C100.107 231.252 101.358 230.518 102.638 229.898C103.614 229.41 106.032 227.895 106.935 228.365C108.402 229.114 106.615 231.399 106.001 232.508C105.2 233.965 104.491 235.367 104.208 237.063C103.34 242.226 106.854 246.196 110.406 246.425C114.988 246.709 119.014 241.357 121.311 236.272C124.581 228.983 125.379 220.501 130.283 214.292C134.324 209.182 139.465 206.098 143.796 201.511C148.95 196.054 151.201 188.079 155.805 182.058C159.849 176.79 164.785 172.253 167.1 165.298C168.431 161.337 168.668 157.2 168.886 153.136C169.149 148.372 169.467 143.621 169.967 138.838C171.875 120.661 175.878 102.522 181.658 85.053C182.365 82.9115 180.08 82.1109 179.124 83.8711L178.131 85.701C176.988 87.8094 179.34 89.4723 180.501 87.3687L181.494 85.5388L178.96 84.357C173.192 101.777 169.227 119.846 167.241 137.95C166.764 142.343 166.391 146.71 166.151 151.084C165.89 155.691 165.934 160.535 164.258 165.014C161.564 172.162 155.697 176.564 151.825 182.589C149.753 185.831 148.335 189.532 146.461 192.904C144.587 196.276 142.03 199.075 139.339 201.497C134.992 205.393 130.205 208.753 126.759 214.176C122.695 220.574 121.916 228.533 118.627 235.369C117.201 238.355 114.988 241.692 112.288 242.501C110.008 243.18 106.998 241.295 106.987 238.044C106.977 235.163 109.686 232.746 110.377 229.993C111.01 227.542 110.244 225.417 108.503 224.756C106.616 224.058 104.073 225.383 102.146 226.338C99.5617 227.599 97.0748 229.228 94.5998 230.887C89.6496 234.205 84.4611 238.148 79.077 238.582C73.6929 239.015 71.1067 232.195 66.4295 230.487C64.6454 229.842 62.8539 230.198 60.9816 231.168C59.1092 232.137 56.5427 234.749 54.5712 234.531C51.886 234.235 52.6924 228.263 53.1382 225.711C53.4586 223.946 53.829 222.061 54.3847 220.355C55.1171 218.115 55.9466 216.771 57.4678 218.061C59.0667 219.424 60.2387 221.469 61.9495 222.624C64.1524 224.116 66.9237 223.854 69.5077 223.57C70.8177 223.432 72.1651 223.225 73.4465 223.424C74.9153 223.644 76.1946 224.45 77.5623 224.987C79.6352 225.786 81.7633 226.071 83.9455 224.574C86.6048 222.725 91.347 218.192 91.4283 213.908C91.5034 210.099 88.327 208.936 86.0529 208.244C84.8887 207.891 79.2616 207.469 79.1249 205.453C79.1377 205.404 81.7694 204.26 82.45 204.093C83.6045 203.81 84.7804 203.743 85.9254 203.722C88.8332 203.68 91.6749 204.043 94.5891 203.976C105.738 203.657 117.234 199.519 127.73 192.218C130.347 190.384 132.948 188.388 135.389 186.113C137.069 184.539 138.619 182.351 138.139 179.719C137.743 177.584 136.154 176.408 134.679 175.763C132.716 174.913 127.704 174.651 131.37 170.473C136.203 164.986 142.286 162.145 147.826 158.636C152.114 155.94 157.799 151.121 155.714 144.378C153.879 138.465 148.718 134.44 144.262 132.472C139.391 130.318 133.876 130.136 128.471 132.148C117.672 136.202 109.925 147.592 105.912 161.054C103.826 168.016 101.837 177.3 96.0766 180.99C93.2788 182.777 88.3706 181.59 90.4329 176.365C91.5678 173.462 94.0813 171.655 95.4207 168.858C98.6108 162.181 92.4295 159.715 88.6984 159.73C85.912 159.751 82.8958 160.663 80.3766 159.273C77.3642 157.625 76.7116 153.416 80.4135 150.595C85.7736 146.512 91.9922 149.357 97.3678 149.106C101.707 148.905 106.892 147.074 109.863 141.846C111.072 139.702 111.958 136.867 111.329 134.513C110.545 131.565 107.822 130.889 105.59 130.709C100.441 130.305 95.0359 133.664 89.9467 132.879C84.8574 132.095 81.5693 124.777 75.6646 126.555C71.1221 127.918 68.1674 133.757 66.2446 138.965C64.3218 144.173 62.5423 152.719 57.7379 155.097C54.9028 156.505 52.36 154.159 51.7875 150.763C51.0786 146.699 53.8133 143.734 56.0773 141.096C59.7875 136.745 62.7401 131.063 59.7218 125.769C56.7035 120.475 50.6517 121.476 45.7557 123.461C43.4658 124.402 41.4232 125.882 40.1913 128.785C38.722 132.235 38.3423 136.178 36.9263 139.721C34.42 145.993 29.562 152.398 24.2489 150.235C19.9839 148.501 18.7783 142.618 22.6812 137.895C25.8823 134.02 30.0572 132.06 33.318 128.254C36.0559 125.052 39.0691 118.012 34.9798 115.822C30.247 113.281 23.348 117.865 18.4914 120.072C15.4507 121.453 12.1267 122.734 9.108 122.009C6.39718 121.362 3.61253 118.531 3.76314 114.503C3.91375 110.476 6.8381 107.824 9.51987 106.561C12.945 104.962 16.4035 105.406 19.6523 106.138C22.901 106.87 25.7631 107.978 28.9106 108.579C31.1943 109.01 33.6707 109.068 35.8997 107.239C37.5717 105.849 38.9549 103.406 39.061 100.899C39.2001 97.7393 37.257 95.8385 35.4887 94.4581C33.0727 92.5938 29.9592 91.7114 27.9287 89.1015C26.1187 86.7597 24.9429 80.4621 29.1126 79.3459C31.6656 78.6577 34.1626 80.807 36.0502 82.3237C38.8188 84.5431 41.4138 87.061 43.8171 89.8727C45.821 92.2117 47.7131 94.7595 49.4337 97.4479C51.1542 100.136 52.5789 103.673 54.8032 105.831C58.3133 109.219 62.9961 106.413 64.2999 100.385C65.7783 93.5307 62.0838 89.4353 59.103 85.4183C57.3718 83.0705 55.3006 79.4202 56.5941 75.5287C57.9515 71.3897 61.4527 72.2664 63.4362 73.8608C68.0807 77.5675 69.4476 86.3439 71.2816 92.7849C73.1157 99.226 75.5867 105.594 80.245 108.723C82.5022 110.23 85.065 110.627 87.6841 110.88C90.3033 111.133 93.7436 111.122 95.6654 113.704C97.3551 115.989 97.5176 119.701 99.5139 121.695C101.098 123.265 103.4 123.701 105.269 121.621C106.923 119.777 107.237 117.059 106.906 114.676C106.507 111.88 102.946 107.343 104.348 104.378C106.461 99.8527 110.722 105.573 112.137 107.047C114.078 109.106 116.311 110.632 118.788 111.588C123.265 113.324 129.947 113.622 134.375 109.034C138.803 104.446 137.34 96.1196 135.4 91.2094C133.344 86.0048 129.496 83.4015 124.625 84.9176C120.635 86.1594 113.021 92.5401 110.016 87.1964C107.696 83.086 113.058 79.3724 115.573 78.7538C118.217 78.089 121.526 78.8106 124.072 76.8793C128.832 73.2484 125.175 66.8387 122.223 65.1794C117.456 62.471 111.455 61.9265 105.977 62.5733C99.9413 63.2873 94.5065 66.1633 88.7234 69.2663C86.0821 70.6712 82.7422 72.239 80.4615 70.2248C77.8271 67.9344 77.9018 62.329 82.1643 61.9761C86.7965 61.613 91.699 66.8651 95.9829 60.3649C100.267 53.8648 93.2928 49.0818 90.3664 45.9767C86.15 41.509 81.9142 35.7687 75.7461 35.9469C71.7956 36.0634 67.5864 36.5092 63.667 38.3766C61.5583 39.3642 59.5102 40.79 57.6103 42.4653C56.4335 43.5085 55.2856 44.6648 54.1791 45.8845C53.2941 46.8446 52.5019 48.5679 51.5401 48.0293C50.1755 47.2548 49.8723 42.7403 49.8646 41.0482C49.8119 37.7338 51.0065 34.8995 53.2578 32.7603C58.6933 27.5607 65.4304 29.2193 71.2352 28.5777C71.9691 28.5029 72.7752 27.549 72.7644 26.5427C72.7774 21.027 69.309 18.6007 65.9163 16.8541C64.0394 15.8947 61.9282 14.7955 60.8446 12.4827C59.0311 8.582 62.8736 5.66495 65.5448 4.74315C77.8973 0.429954 85.0169 16.1037 89.7595 26.992C92.2336 32.6739 94.7982 38.3792 98.415 42.8507C101.49 46.6542 105.794 50.4053 110.529 50.0949C114.026 49.8617 118.086 46.5518 117.38 41.3523C116.52 35.0303 111.126 32.5827 108.034 28.6956C106.384 26.6327 104.723 23.5635 105.393 20.0659C105.999 16.8948 108.345 14.9121 110.607 14.2281C116.026 12.5364 119.354 17.752 121.207 23.221C123.061 28.6899 123.862 35.3926 126.212 40.805C127.229 43.1533 128.521 45.256 130.184 46.8204C132.349 48.8314 135.071 49.5863 137.33 51.3838C141.681 54.8826 140.83 62.8229 142.028 68.8095C143.226 74.7961 145.941 79.2461 149.749 82.0769C152.052 83.7801 157.821 87.1695 160.068 82.2036C161.298 79.4576 159.973 77.0299 158.952 75.0762C157.463 72.2365 155.999 69.3766 154.689 66.3714C152.18 60.6012 147.42 48.2825 152.673 41.3193C159.467 32.3507 160.738 49.6583 161.145 54.5956C161.698 61.2871 162.81 67.3045 166.753 71.4112C170.696 75.5178 178.108 78.3013 177.911 86.7797C177.848 89.1931 180.729 88.8799 180.792 86.4666L180.691 86.2559Z" fill="#255176"/>
</svg>
