<svg width="599" height="891" viewBox="0 0 599 891" fill="none" xmlns="http://www.w3.org/2000/svg">
<path d="M640.871 691.356C661.367 678.397 681.55 662.465 690.583 638.682C698.57 617.648 696.226 593.972 681.658 574.382C673.367 563.238 662.756 554.109 654.615 542.846C650.427 537.039 647.653 530.65 644.595 524.261C641.537 517.873 637.511 511.447 632.716 505.852C623.321 494.911 611.673 486.379 600.313 477.799C588.952 469.218 576.988 459.462 565.936 449.519C554.884 439.576 544.091 428.981 533.872 417.977C524.269 407.648 514.058 396.861 507.332 384.344C495.24 361.855 496.859 336.383 498.532 312.835C500.595 283.39 502.727 253.98 504.815 224.515C505.593 213.749 504.227 198.419 490.172 197.204C478.753 196.227 466.675 201.941 457.777 207.911C417.167 235.138 415.352 292.825 420.928 340.012C424.01 366.011 430.038 391.869 437.446 417.305C441.07 429.818 445.053 442.271 449.184 454.652C453.314 467.032 457.316 480.23 462.418 492.602C465.011 498.866 468.686 504.23 473.841 508.734C478.997 513.238 484.477 517.172 488.87 522.773C497.433 533.746 502.414 546.84 508.86 558.952C515.307 571.064 523.669 581.526 533.554 591.23C543.438 600.934 553.587 609.222 562.165 619.647C568.651 627.48 579.006 641.953 573.519 651.975C568.033 661.997 550.317 645.748 545.658 640.583C526.936 619.765 522.732 591.523 514.533 566.222C510.173 552.726 504.032 539.969 497.068 527.462C493.721 521.481 490.487 515.232 486.645 509.554C483.406 504.74 478.714 500.718 473.017 500.22C463.718 499.397 457.378 508.083 456.216 516.559C454.624 528.462 464.017 539.091 470.86 548.252C502.063 590.043 487.51 653.074 532.847 686.852C541.513 693.318 551.66 697.583 562.025 698.053C566.63 698.253 569.687 692.48 565.142 689.057C558.526 684.099 551.121 680.928 543.688 677.824C536.255 674.72 528.921 671.896 523.078 666.37C516.172 659.809 513.864 650.143 510.283 641.754C506.359 632.52 500.926 623.853 495.082 615.645C483.615 599.458 470.306 584.551 461.784 566.57C453.261 548.589 449.012 530.802 443.483 512.687C437.955 494.572 430.288 475.868 419.593 458.802C408.899 441.735 395.227 425.236 381.633 409.66C353.568 377.502 323.883 346.492 292.404 317.751C277.624 304.232 261.985 291.482 244.611 281.848C229.927 273.707 211.269 268.891 198.105 279.624C186.575 289.019 187.913 305.086 195.625 318.075C204.674 333.269 218.995 345.229 231.786 357.06C247.353 371.522 263.409 385.417 279.884 398.758C296.358 412.099 313.013 424.225 329.106 437.6C345.199 450.974 360.281 465.597 372.557 482.753C384.074 498.901 393.041 516.619 400.923 534.616C417.213 571.891 429.53 610.433 448.667 646.617C458.183 664.617 468.753 682.453 480.787 698.996C490.186 711.901 501.313 724.154 515.22 731.882C521.785 735.538 528.972 737.764 536.203 738.345C542.562 738.856 543.337 728.808 536.906 728.309C522.113 727.141 509.54 717.955 499.337 706.715C487.196 693.386 477.449 677.671 468.369 662.233C458.123 644.856 449.01 626.85 441.064 608.413C433.403 590.644 426.715 572.507 419.589 554.539C405.542 519.066 389.253 483.801 362.481 455.493C334.453 425.855 299.971 403.472 269.07 377.315C253.532 364.126 238.405 350.479 223.743 336.284C214.114 327.004 200.659 314.85 199.441 300.79C198.823 293.722 202.799 288.027 208.808 285.416C216.064 282.266 224.382 283.552 231.984 286.611C248.938 293.447 264.447 306.032 278.402 318.148C309.438 345.093 338.232 375.287 365.638 406.045C378.969 420.98 392.211 436.164 403.834 452.496C415.456 468.828 424.587 486.238 430.919 505.059C436.665 522.108 440.75 539.533 447.049 556.457C453.747 574.452 463.807 590.098 475.474 605.456C481.351 613.19 487.303 620.864 492.582 629.027C497.86 637.19 501.564 646.197 505.235 655.319C508.443 663.288 512.672 670.538 519.465 676.027C525.404 680.85 532.462 683.893 539.321 686.736C546.181 689.578 553.418 692.435 559.651 697.115L562.768 688.119C541.188 687.136 524.396 668.859 515.667 649.432C504.928 625.559 503.012 599.487 494.926 574.945C490.864 562.6 485.062 551.095 477.102 540.627C471.396 533.161 461.963 522.429 468.154 513.504C475.398 503.074 484.184 524.067 487.32 529.678C494.058 541.694 500.21 553.95 504.585 566.897C512.968 591.606 516.964 617.731 532.666 639.732C539.588 649.456 548.88 658.154 559.709 662.818C569.802 667.169 580.932 664.843 583.839 653.778C589.995 630.483 565.57 608.232 549.873 593.605C540.4 584.782 530.763 575.956 523.492 565.122C516.222 554.287 511.278 541.343 504.726 529.717C501.63 524.208 498.197 518.788 493.982 514.03C489.398 508.806 483.858 505.053 478.781 500.442C473.703 495.831 471.46 489.648 469.285 483.499C467.11 477.351 465.122 471.592 463.074 465.656C454.77 441.51 446.926 417.224 440.812 392.597C434.731 368.167 430.241 343.327 428.995 318.513C427.749 293.699 429.085 270.91 437.817 249.735C446.548 228.559 463.966 210.525 486.952 207.667C489.365 207.367 492.012 207.104 493.671 209.458C495.33 211.811 495.272 215.345 495.259 217.904C495.141 224.66 494.36 231.404 493.893 238.079C492.876 252.253 491.881 266.455 490.864 280.629C489.121 305.171 485.582 330.33 488.568 355.332C489.921 366.781 493.114 378.338 498.806 388.723C505.487 400.874 514.771 411.366 524.1 421.554C543.243 442.441 564.033 461.801 586.194 479.182C597.306 487.914 609.113 495.873 619.412 505.741C624.429 510.533 629.112 516.038 632.6 522.041C636.087 528.044 638.361 534.472 641.73 540.48C653.943 562.248 679.323 576.946 684.322 602.276C688.814 625.058 678.232 646.267 663.466 660.951C654.76 669.586 644.674 676.631 634.361 683.184C629.133 686.473 635.708 694.728 640.889 691.431L640.871 691.356Z" fill="#081B2A"/>
<path d="M445.739 620.499C425.82 589.718 400.256 564.121 374.747 538.078C361.464 524.491 348.714 510.393 336.497 495.783C325.241 482.336 315.055 466.789 301.026 456.073C288.523 446.564 273.526 442.561 258.751 441.467C243.977 440.374 226.878 439.332 214.733 447.022C203.481 454.14 202.319 468.698 208.999 480.848C215.68 492.999 227.365 501.68 239.34 508.254C265.455 522.594 295.517 526.253 320.881 542.529C350.824 561.754 365.729 596.816 385.984 624.827C390.691 631.341 395.95 637.418 400.636 643.904C405.321 650.39 410.04 657.744 414.495 664.815C423.806 679.669 432.392 695.05 442.62 709.312C459.624 733.01 482.386 755.325 509.885 764.456C539.491 774.289 568.234 765.667 592.927 751.621C607.287 743.43 620.705 733.792 631.89 721.54C637.047 715.893 641.858 709.76 645.012 702.613C647.263 697.522 648.202 691.905 649.137 686.336C650.258 679.457 651.969 672.961 654.591 666.637C656.989 660.804 647.542 656.701 645.168 662.515C642.571 668.818 640.836 675.334 639.646 682.178C638.769 687.254 638.083 692.314 636.214 697.012C630.8 710.733 618.098 721.636 606.797 730.135C585.419 746.206 557.5 761.331 528.735 758.433C501.85 755.747 478.271 737.656 460.509 716.659C439.902 692.325 426.388 663.092 407.748 637.38C403.169 631.078 398.087 625.174 393.507 618.873C388.473 611.947 383.86 604.778 379.274 597.542C370.528 583.762 361.993 569.681 351.405 557.18C340.816 544.68 328.82 535.038 314.632 527.935C302.3 521.734 289.307 517.531 276.474 513.067C263.641 508.604 250.046 503.848 238.066 496.34C228.536 490.38 217.585 481.698 215.061 470.059C211.529 453.538 231.19 451.479 242.742 451.233C256.382 450.944 270.758 451.638 283.933 457.306C298.761 463.723 308.744 476.748 318.717 489.244C329.89 503.204 341.539 516.787 353.696 529.879C376.972 555.007 402.406 578.069 423.326 605.375C428.557 612.189 433.487 619.242 438.144 626.466C441.821 632.141 449.3 626.131 445.667 620.511L445.739 620.499Z" fill="#081B2A"/>
<path d="M502.663 400.604C513.326 474.572 544.164 546.612 594.57 604.727C605.33 617.136 617.994 631.795 634.989 631.623C650.799 631.449 658.625 617.117 653.625 601.937C650.751 593.256 644.428 586.144 638.692 579.103C632.956 572.062 626.876 564.176 620.832 556.798C608.523 541.814 595.25 528.756 578.906 518.62C569.802 512.993 560.61 507.615 552.672 500.215C548.604 496.415 544.919 492.223 541.333 487.951C538.013 483.962 534.043 479.771 531.396 475.294C529.087 471.398 528.265 466.906 527.235 462.669C526.135 458.084 524.888 453.571 523.594 449.051C520.787 439.424 517.882 429.829 515.747 420.072C514.33 413.592 504.528 414.554 505.967 421.062C509.415 436.755 514.52 452.119 518.425 467.719C520.494 476.053 524.219 482.047 529.644 488.797C535.069 495.548 541.133 502.642 547.789 508.731C560.944 520.765 577.476 527.532 590.996 539.098C604.516 550.664 615.771 565.812 627.096 579.965C632.366 586.57 638.829 593.035 642.657 600.602C645.589 606.419 647.113 614.424 642.024 618.765C636.935 623.106 629.308 621.766 623.574 618.748C616.447 615 610.811 608.55 605.452 602.553C580.768 574.872 560.198 543.578 544.734 510.076C528.426 474.737 517.899 437.373 512.468 399.594C511.529 393.049 501.724 394.059 502.688 400.584L502.663 400.604Z" fill="#081B2A"/>
<path d="M465.241 511.161C439.013 481.171 409.294 454.034 386.29 421.313C374.056 403.899 364.324 385.266 356.213 365.796C348.103 346.326 339.871 326.908 334.893 307.015C329.915 287.123 330.715 268.604 331.657 249.749C332.078 240.696 332.927 231.618 335.168 222.958C335.689 220.936 336.278 218.949 336.961 216.978C337.495 215.437 338.064 212.394 339.215 211.169C340.982 209.279 339.03 210.78 340.296 210.627C341.036 210.532 342.228 211.11 342.967 211.374C344.908 212.074 346.713 213.015 348.401 214.272C361.846 224.198 364.396 242.569 364.19 257.355C363.926 275.315 362.391 292.493 369.156 310.211C373.141 320.605 378.982 330.2 384.461 339.904C389.939 349.608 395.182 359.633 400.654 369.431C411.39 388.611 423.589 406.187 439.424 421.554C444.261 426.222 449.745 418.258 444.93 413.618C429.957 399.134 418.553 382.047 408.547 363.944C403.333 354.522 398.338 345.017 393.002 335.648C387.666 326.278 382.511 317.705 378.66 308.099C371.162 289.351 374.67 271.058 374.06 252.046C373.528 235.967 368.449 217.854 354.83 207.037C349.04 202.453 338.372 197.17 332.567 202.615C329.753 205.244 328.507 209.853 327.305 213.487C325.777 218.05 324.711 222.784 323.854 227.576C320.472 246.44 320.398 267.112 321.756 286.606C323.212 307.408 330.834 327.086 338.334 346.815C346.233 367.615 354.616 388.255 366.055 407.55C390.648 449.029 426.228 481.096 457.674 517.061C462.103 522.141 469.648 516.214 465.197 511.106L465.241 511.161Z" fill="#081B2A"/>
<path d="M428.499 325.613C418.855 315.182 409.463 302.853 404.671 289.431C401.999 281.932 403.659 275.476 406.265 268.719C408.87 261.962 411.047 255.901 411.688 248.775C414.284 220.518 396.58 192.947 382.699 168.61C373.1 151.794 363.523 135.005 353.924 118.189C350.592 112.331 344.673 104.183 347.481 97.5788C349.689 92.4327 355.889 89.8053 361.394 90.009C375.427 90.5268 387.493 105.256 396.831 114.99C406.168 124.725 415.411 135.115 423.224 146.325C431.037 157.535 437.057 169.314 440.236 182.09C443.894 196.812 443.594 211.582 441.12 225.926C440.013 232.257 449.971 233.81 451.049 227.546C455.785 200.188 451.065 172.892 435.666 147.924C428.157 135.758 418.959 124.705 409.247 114.239C398.655 102.815 387.184 89.0454 372.84 82.8269C359.715 77.1185 342.327 80.1952 337.704 94.4516C335.195 102.206 338.509 110.359 342.507 117.524C347.517 126.481 352.695 135.393 357.802 144.318C367.336 161.052 377.236 177.63 386.303 194.599C393.379 207.867 399.946 221.986 401.611 236.765C402.561 245.18 401.257 252.963 398.383 260.514C395.307 268.583 392.047 276.574 393.625 285.833C395.203 295.092 400.413 303.22 405.19 311.109C409.966 318.999 415.006 325.16 420.951 331.588C425.508 336.521 433.075 330.621 428.474 325.633L428.499 325.613Z" fill="#081B2A"/>
<path d="M342.902 446.576C337.102 447.545 329.935 444.364 324.199 442.734C317.486 440.849 310.808 438.802 304.196 436.479C291.02 431.839 277.996 426.051 266.467 417.515C253.473 407.902 243.84 394.959 233.924 382.328C224.008 369.698 212.774 356.278 201.617 343.781C192.59 333.666 182.276 319.965 168.176 319.053C156.387 318.279 146.202 325.715 141.686 336.086C131.036 360.3 146.655 392.606 168.369 407.568C182.649 417.415 199.085 424.214 214.837 430.615C230.59 437.015 247.422 443.232 263.329 450.807C269.335 453.654 272.544 444.362 266.538 441.515C240.34 429.029 212.826 420.447 186.893 407.215C174.452 400.876 162.558 392.807 155.69 379.955C149.891 369.074 146.323 355.085 149.847 343.666C152.792 334.092 162.683 325.77 173.391 330.485C179.342 333.108 183.935 338.55 188.289 343.33C193.546 349.096 198.728 354.921 203.806 360.872C214.143 372.901 223.954 385.346 233.789 397.772C242.798 409.153 252.516 419.884 264.499 428.015C276.483 436.147 290.107 442.176 303.736 446.77C310.747 449.134 317.825 451.223 324.888 453.189C331.276 454.973 338.301 457.819 344.752 456.693C351.202 455.567 349.112 445.506 342.902 446.576Z" fill="#081B2A"/>
<path d="M283.203 520.437C270.244 531.634 249.423 525.221 233.49 528.487C214.362 532.405 201.216 550.322 205.981 571.233C210.745 592.144 230.432 605.268 250.636 605.954C272.61 606.714 290.537 595.61 309.43 587.272C319.719 582.75 330.891 579.138 342.479 578.731C351.882 578.397 359.34 582.152 364.886 590.55C368.613 596.185 376.114 590.203 372.409 584.595C361.891 568.73 345.298 566.885 329.3 570.069C318.9 572.131 309.268 575.73 299.814 580.173C290.36 584.616 280.389 590.004 269.913 593.155C254.04 597.939 232.335 597.725 220.762 581.354C208.373 563.795 217.345 541.893 236.325 538.406C254.129 535.134 275.11 541.286 289.684 528.677C294.324 524.646 287.821 516.379 283.156 520.43L283.203 520.437Z" fill="#081B2A"/>
<path d="M414.308 647.165C384.698 622.847 348.655 607.199 312.196 603.238C294.238 601.266 274.529 601.977 261.293 614.421C249.682 625.311 244.144 642.483 247.275 659.321C250.608 677.341 263.388 693.383 279.456 702.038C295.525 710.692 315.121 710.92 327.048 698.215C332.91 691.965 336.57 683.345 343.471 678.151C350.372 672.956 360.27 674.691 368.555 678.149C387.563 686.086 403.319 700.89 419.364 713.945C439.286 730.147 459.889 745.407 481.113 759.595C490.118 765.613 499.306 771.397 509.93 772.556C520.555 773.714 529.882 771.429 539.474 769.068C542.051 768.459 542.847 764.878 541.829 762.509C540.584 759.649 537.747 758.899 535.17 759.508C527.507 761.37 519.413 763.305 511.271 762.552C502.116 761.705 494.381 756.828 486.644 751.639C469.11 739.897 451.979 727.478 435.322 714.37C419.833 702.172 405.167 688.383 388.543 677.843C375.049 669.297 356.568 659.914 341.817 666.94C327.066 673.966 324.041 694.827 307.116 697.716C291.245 700.442 274.433 690.229 264.893 676.631C255.353 663.033 253.743 645.437 261.022 631.806C269.117 616.679 285.07 612.1 301.781 612.599C339.599 613.742 378.227 630.026 408.798 655.148C414.017 659.423 419.524 651.487 414.304 647.212L414.308 647.165Z" fill="#081B2A"/>
<path d="M604.713 481.243C591.926 466.995 576.311 455.925 563.599 441.618C556.508 433.638 549.311 425.473 544.954 415.641C541.335 407.462 539.803 398.569 539.578 389.938C539.038 371.272 542.953 352.926 545.713 334.823C547.356 324.222 548.952 313.613 550.595 303.012C552.071 293.437 553.978 283.789 553.747 273.912C553.282 254.516 544.116 235.568 536.203 217.687C531.868 207.882 526.689 198.299 522.84 188.334C519.988 181.022 518.033 169.379 526.025 165.512C534.018 161.645 543.496 169.032 549.566 174.691C556.725 181.365 563.328 188.883 569.073 196.81C580.715 212.859 587.519 231.038 587.428 250.247C587.274 288.958 568.017 329.196 592.004 366.818C595.656 372.513 603.135 366.503 599.527 360.863C588.856 344.135 588.745 323.744 590.793 305.668C592.841 287.592 597.53 269.348 597.357 250.526C597.189 230.269 590.564 211.233 578.77 193.964C572.797 185.232 565.8 177.268 558.287 169.889C551.506 163.229 544.042 156.84 534.795 154.949C525.548 153.057 517.192 156.362 513.086 164.263C508.68 172.713 510.273 182.765 513.848 191.919C517.924 202.375 523.351 212.478 527.865 222.766C532.378 233.055 536.621 242.485 539.96 252.63C543.3 262.775 544.329 272.423 543.335 282.556C542.209 293.552 540.194 304.403 538.531 315.288C535.418 335.728 531.185 356.249 529.87 377.054C529.232 387.173 529.511 397.728 532.094 407.845C534.958 419.038 540.589 428.934 547.91 438.029C555.231 447.124 563.544 455.925 572.348 463.802C581.152 471.678 589.501 478.618 597.168 487.171C601.672 492.191 609.217 486.263 604.691 481.216L604.713 481.243Z" fill="#081B2A"/>
<path d="M682.332 575.235C680.173 566.839 679.838 558.429 678.963 549.955C678.088 541.481 676.004 533.025 672.153 525.119C667.802 516.222 661.808 508.133 655.8 500.234C649.792 492.336 643.14 483.829 636.721 475.719C623.513 459.033 609.932 442.596 596.097 426.406C589.55 418.754 582.416 411.39 576.447 403.282C571.733 396.863 568.268 389.187 571.013 381.783C576.383 367.337 593.749 366.603 606.824 372.351C624.056 379.95 637.098 396.634 649.703 410.445C675.792 439.025 702.302 471.743 707.246 510.71C711.851 547.085 691.741 578.877 686.403 613.15C685.411 619.524 695.344 621.097 696.332 614.77C701.445 582.016 719.449 552.562 717.743 518.097C715.749 477.24 690.062 441.233 663.048 410.97C655.758 402.79 648.345 394.662 640.75 386.768C633.641 379.383 626.205 372.257 617.478 367.003C603.137 358.367 585.066 354.964 571.78 364.407C566.046 368.499 561.818 374.752 560.461 381.952C558.934 390.226 561.859 398.508 566.513 405.779C572.086 414.469 579.614 421.969 586.316 429.766C593.804 438.505 601.217 447.303 608.53 456.181C624.381 475.382 640.431 494.782 654.852 515.114C661.557 524.563 666.691 534.45 668.482 545.731C670.112 555.933 669.921 566.1 672.526 576.245C674.184 582.668 683.962 581.725 682.307 575.255L682.332 575.235Z" fill="#081B2A"/>
</svg>
