<svg width="477" height="609" viewBox="0 0 477 609" fill="none" xmlns="http://www.w3.org/2000/svg">
<g opacity="0.7">
<path d="M264.842 236.195C267.228 241.236 275.957 237.104 273.571 232.063C271.185 227.022 262.455 231.154 264.842 236.195Z" fill="#255176"/>
<path d="M104.551 415.326C104.709 418.896 102.551 422.539 101.067 425.799C99.4032 429.432 97.9546 433.219 97.867 437.097C97.7742 441.265 99.2111 447.235 102.913 449.639C106.293 451.812 112.276 453.615 116.476 453.609C127.769 453.539 136.934 441.975 141.524 433.312C144.004 428.621 145.793 423.746 147.735 418.894C148.764 416.329 148.62 415.949 151.578 415.125C153.759 414.54 156.375 414.197 158.51 414.721L155.919 412.558C157.181 415.222 159.457 418.301 159.426 421.321C159.398 423.444 158.482 425.572 157.604 427.554C155.831 431.559 153.407 435.392 152.451 439.617C149.978 450.795 161.759 456.12 172.053 455.595C183.253 455.025 198.384 448.917 200.854 437.357C201.811 432.908 200.984 428.376 200.139 424.108C199.343 420.169 197.976 415.701 199.11 411.551C199.967 408.396 202.611 404.651 206.024 406.744C210.182 409.283 210.849 414.754 210.427 419.206C209.506 429.073 204.621 440.498 213.599 447.725C222.576 454.953 232.846 450.763 240.252 442.558C243.947 438.475 246.917 433.839 249.95 429.335C251.418 427.169 252.844 424.991 254.408 422.876C255.041 422.033 257.198 420.117 255.035 421.493C255.771 421.016 256.544 420.618 257.28 420.142C258.678 419.256 260.126 418.252 261.194 417.65C261.926 417.239 262.641 416.869 263.41 416.537C263.905 416.303 263.905 416.303 264.129 416.325C264.353 416.346 264.42 416.187 264.9 416.599C265.458 417.102 265.871 417.898 266.234 418.589C267.182 420.442 268.443 423.106 268.158 425.287C267.519 430.034 262.652 434.799 260.164 438.95C258.487 441.727 257.062 444.511 256.268 447.573C255.368 450.94 257.36 453.642 258.72 456.515C259.474 458.108 261.703 459.355 263.713 458.787C277.884 454.637 291.599 455.018 305.225 458.447C310.604 459.801 319.903 461.537 314.587 468.818C311.101 473.569 305.62 476.963 299.732 477.992C287.668 480.121 275.342 474.926 264.358 472.037C261.588 471.302 258.305 470.011 255.334 469.979C252.039 469.94 248.024 472.896 245.916 475.14C241.489 479.858 241.853 485.216 243.637 490.414C245.137 494.787 247.9 498.819 248.391 503.542C248.982 509.081 245.789 514.524 239.675 515.98C234.778 517.147 227.358 517.047 224.729 512.697C222.785 509.493 223.892 504.909 224.592 501.348C226.483 491.948 229.568 481.536 223.972 473.251C218.029 464.459 204.499 464.694 196.342 472.519C186.983 481.489 190.729 491.961 191.993 502.232C192.62 507.243 192.081 513.253 186.006 515.393C180.941 517.183 173.308 516.257 170.496 511.897C169.356 510.167 170.026 508.347 170.622 506.37C171.587 503.292 172.888 500.246 173.811 497.156C175.771 490.761 176.966 484.633 172.75 479.339C164.766 469.243 149.384 469.555 138.154 476.757C131.957 480.746 127.754 486.54 127.967 493.536C128.084 497.094 129.863 500.024 131.044 503.27C132.166 506.319 132.911 509.547 133.116 512.839C133.302 515.565 132.683 518.095 132.263 520.82C132.183 521.402 131.169 522.873 132.385 521.529C132.156 521.798 131.507 522.233 131.229 522.397C130.264 522.917 129.283 523.478 128.244 523.842C124.01 525.43 119.075 525.464 115.255 523.564C104.913 518.421 109.581 507.515 111.839 498.741C113.007 494.288 113.364 489.547 111.248 485.529C108.856 481.003 103.892 477.438 98.2563 477.196C84.9608 476.648 80.5265 493.39 78.0474 502.524C76.8038 507.045 77.0679 514.977 70.5518 515.056C64.8118 515.12 59.1775 512.096 58.5982 506.584C58.2683 503.479 60.1991 500.711 60.6118 497.67C61.1482 493.611 61.0511 489.117 59.8934 485.317C57.7831 478.452 51.265 475.367 44.9586 472.278C33.3817 466.632 20.6829 462.604 9.96944 455.623C4.7142 452.196 0.14643 447.964 -3.04429 442.728L-6.78007 449.133C-7.07904 449.178 -8.45303 448.006 -8.28421 447.159C-8.34314 447.411 -2.0282 444.198 -2.22099 444.769C-2.1206 444.529 -3.01956 442.781 -3.04429 442.728L-6.78007 449.133C-1.93324 448.085 2.5933 449.747 4.76721 453.737C7.40291 458.628 16.1446 454.522 13.4965 449.605C9.52836 442.276 1.08272 438.505 -8.03773 440.456C-11.2689 441.155 -12.7692 444.231 -11.7736 446.861C-10.7161 449.621 -9.04553 452.699 -5.5438 453.023C-2.86768 453.259 -0.330325 451.547 0.673703 449.153C3.04991 443.488 -2.38566 439.379 -8.03773 440.456C-10.8783 441.002 -13.2471 444.425 -11.7736 446.861C-0.0137399 466.135 23.2397 471.241 42.7363 481.578C45.2138 482.899 48.4383 484.218 49.9329 486.548C51.7868 489.411 51.7464 494.066 51.0463 497.402C50.4809 500.196 49.1939 502.819 49.0889 505.682C48.981 508.163 49.4922 510.447 50.3147 512.711C52.1575 517.657 56.0038 520.44 61.1479 522.353C65.7697 524.066 71.4245 524.65 76.3987 522.743C82.0836 520.532 84.0328 515.996 85.3571 510.893C86.7324 505.447 88.0248 499.975 90.1384 494.659C91.1511 492.133 93.1251 486.371 96.712 486.048C100.299 485.725 103.092 489.518 103.294 492.428C103.523 495.772 102.15 499.267 101.16 502.517C99.9217 506.748 98.8411 510.937 99.0924 515.23C99.6801 524.447 107.205 531.915 116.712 533.489C123.933 534.674 137.362 532.569 140.559 524.726C142.492 520.006 142.867 514.778 142.368 509.962C142.099 507.212 141.415 504.563 140.614 501.968C139.719 499.099 137.824 496.224 137.398 493.292C136.562 487.614 142.644 483.232 147.83 481.32C152.625 479.562 158.16 480.043 162.119 482.613C164.024 483.853 165.994 485.606 166.123 487.911C166.268 490.4 165.362 493.227 164.582 495.642C163.06 500.327 160.641 505.149 160.222 509.983C159.362 520.429 172.343 525.73 181.845 525.036C187.453 524.619 194.055 522.389 197.437 517.719C200.385 513.638 201.574 509.079 201.544 504.425C201.473 496.978 196.165 487.118 201.356 480.025C206.546 472.932 215.915 474.891 217.326 482.536C218.736 490.181 215.149 497.953 214.336 505.564C213.428 513.954 216.601 522.011 225.657 524.438C236.79 527.417 250.189 524.271 255.679 513.296C260.325 503.999 256.085 496.095 252.801 487.803C252.245 486.403 251.579 484.769 251.683 483.184C251.842 480.584 254.24 479.48 256.509 478.406L252.881 478.717C270.23 482.334 290.444 492.683 308.945 484.213C318.248 479.937 328.745 469.533 324.744 459.725C321.203 451.043 307.986 449.531 299.246 448.073C287.093 446.025 274.682 446.593 262.393 450.204L267.387 452.476C266.966 451.588 265.415 448.838 265.415 448.838C265.34 447.626 266.767 445.448 267.343 444.408C269.122 441.168 271.46 438.207 273.429 435.069C275.132 432.345 276.768 429.556 277.38 426.485C278.064 422.964 276.97 419.901 275.814 416.707C273.968 411.603 269.938 406.701 263.361 407.704C259.204 408.329 254.943 411.593 252.14 413.271C246.327 416.791 243.067 423.673 239.401 429.021C236.435 433.366 231.99 441.13 226.17 442.606C223.632 443.264 221.055 441.958 219.459 440.316C217.188 438.002 217.427 434.595 217.828 431.528C218.789 424.455 220.912 417.504 219.4 410.547C218.039 404.285 213.026 397.834 205.757 397.151C198.488 396.467 192.596 402.454 190.371 408.59C188.147 414.726 189.63 420.643 190.756 426.408C191.882 432.173 193.249 437.92 187.144 441.801C181.038 445.682 169.816 449.364 163.303 444.934C159.054 442.054 163.549 435.898 165.274 432.396C166.595 429.692 167.749 426.94 168.378 424.053C169.305 419.841 168.485 416.681 166.729 412.972C165.777 410.961 165.074 407.969 163.044 406.692C161.827 405.925 159.935 405.766 158.462 405.664C154.507 405.362 149.906 406.101 146.186 407.798C138.414 411.318 137.21 421.191 134.08 427.82C132.195 431.813 129.899 435.842 126.597 439.099C123.944 441.698 119.849 445.235 115.912 444.669C114.041 444.403 112.28 443.542 110.593 442.838C109.934 442.575 108.74 442.309 108.218 441.884C109.704 443.067 108.263 441 108.077 440.608C106.866 437.825 107.183 434.957 108.28 432.008C110.63 425.685 114.168 420.141 113.879 413.436C113.649 407.759 104.246 409.716 104.48 415.328L104.551 415.326Z" fill="#255176"/>
<path d="M3.25009 451.737C18.5521 457.954 37.8028 459.871 54.8217 455.267C63.2584 453 71.2443 449.028 77.2583 442.696C83.7678 435.906 86.847 427.287 87.49 418.638C87.9364 412.96 78.5208 412.557 78.0868 418.262C77.5443 425.392 75.3083 432.557 69.5919 438.013C64.4916 442.889 57.7504 445.728 50.9264 447.264C36.0368 450.572 20.0688 448.667 6.76859 443.294C1.34738 441.097 -2.15878 449.566 3.22096 451.751L3.25009 451.737Z" fill="#255176"/>
<path d="M54.7798 315.83C53.8269 315.322 52.7126 314.699 52.242 313.93C51.9904 313.474 51.9221 312.803 52.0785 311.93C52.4766 309.535 54.3565 307.111 55.9817 305.127C59.8614 300.381 65.3675 295.76 70.4495 292.651C78.9999 287.389 89.751 288.054 99.0214 284.689C107.714 281.533 116.548 273.483 112.461 264.547C109.222 257.48 100.849 255.593 93.1472 255.275C88.8606 255.098 78.46 256.377 76.2956 252.03C74.9392 249.315 76.5639 244.997 78.0502 242.343C79.8748 239.05 82.8349 236.274 86.075 234.165C92.8214 229.756 101.415 227.67 109.208 228.106C118.391 228.618 127.011 233.586 136.577 229.792C146.838 225.735 150.378 213.349 142.684 206.728C136.179 201.111 126.643 200.606 118.426 198.069C115.511 197.179 111.199 195.895 110.16 192.871C108.848 189.048 112.958 183.809 115.934 181.218C123.81 174.228 135.317 172.202 144.719 167.911C154.121 163.62 163.088 156.754 164.27 146.987C165.452 137.22 155.429 130.87 145.312 133.198C140.145 134.397 135.748 137.373 130.931 139.462C128.275 140.623 122.028 142.174 121.459 138.415C120.98 135.22 123.584 131.015 125.237 128.186C127.541 124.25 130.189 120.439 132.439 116.464C137.675 107.208 140.358 97.7532 141.463 87.6711C141.968 83.02 141.956 77.8783 137.957 74.8478C134.442 72.1635 128.643 71.1999 124.611 74.4195C121.265 77.0583 120.018 81.6454 122.851 84.6204C125.262 87.1556 129.627 87.4231 133.076 86.2062C137.505 84.653 140.024 81.0949 140.681 76.9153C141.041 74.6667 139.119 72.1874 136.575 72.3049C121.835 72.92 108.909 81.2772 101.401 93.559C97.8918 99.3126 95.7054 105.303 94.7338 111.678C93.8641 117.365 93.7123 123.063 92.7596 128.725C91.9758 133.54 90.4796 140.387 85.6922 143.517C82.1859 145.816 77.5371 144.723 74.0165 143.832C63.4548 141.159 52.3455 135.899 41.5464 143.409C31.5294 150.389 24.9113 168.612 33.4816 177.312C37.3904 181.28 43.5914 182.341 49.2674 182.819C54.6072 183.265 60.2244 182.716 64.6511 185.672C68.1338 187.987 69.6072 191.702 67.9127 195.797C65.762 201.035 60.9659 204.297 55.1765 204.256C43.5975 204.174 33.4398 197.313 21.4903 201.339C12.1792 204.468 4.55515 213.192 3.82332 222.331C3.02155 232.525 11.152 238.716 21.6529 238.476C26.7623 238.36 32.3322 237.034 37.3054 237.909C42.2786 238.783 41.9908 244.195 41.4129 248.241C40.5926 254.032 37.6795 260.143 32.3633 263.811C26.7226 267.696 20.2255 267.063 14.0906 266.066C7.95568 265.07 2.08777 263.659 -4.16363 263.997C-10.7554 264.368 -16.9175 266.55 -22.4127 270.366C-32.2508 277.197 -38.3796 289.306 -31.2394 298.746C-24.0992 308.187 -11.3999 305.82 -0.587867 308.119C4.55483 309.201 9.50459 312.133 5.76378 317.549C2.02296 322.964 -4.67885 325.21 -10.883 326.324C-24.3505 328.799 -39.6299 329.478 -47.095 342.827C-53.583 354.402 -41.6897 361.017 -32.0671 364.039C-26.3374 365.835 -20.6397 367.262 -17.2322 372.203C-14.1346 376.715 -13.5983 382.663 -13.662 388.097C-13.8566 400.402 -17.4678 413.013 -15.7071 425.16C-14.6442 432.522 -11.5911 439.197 -6.88313 444.929C-4.95278 447.276 0.299912 446.484 1.23638 443.196C2.04697 440.318 2.77249 436.81 -0.226467 435.064C-3.22544 433.319 -6.50623 435.191 -9.00725 437.206C-12.5071 440.046 -10.1449 446.089 -5.43413 444.755C-0.0504243 443.261 3.18254 439.557 3.55252 434.394C3.86492 430.314 2.14348 426.301 2.59265 422.284C3.23835 416.575 -6.16484 416.199 -6.81056 421.908C-7.05007 424.035 -4.51093 435.494 -6.72085 436.092L-3.14774 443.64C-1.8958 442.824 -2.06966 442.682 -3.69838 443.23L-6.81887 441.829C-7.20564 439.583 -7.44489 439.152 -7.60724 440.54L0.512251 438.807C-8.43246 427.887 -6.84849 414.604 -5.32193 401.125C-4.02252 389.8 -2.56876 376.995 -9.00259 367.316C-12.2319 362.45 -17.1554 359.122 -22.9178 357.182C-27.7848 355.554 -33.2228 354.675 -37.2924 351.646C-41.7803 348.335 -37.7638 343.653 -33.6625 340.88C-28.2174 337.183 -21.1644 336.658 -14.9319 335.754C-2.95275 334.048 11.9697 329.605 16.029 317.037C20.0883 304.47 5.5464 299.332 -5.22066 298.483C-10.2536 298.084 -15.8691 298.184 -20.2356 295.807C-24.602 293.43 -26.2136 288.822 -23.7538 284.237C-21.2941 279.651 -16.3844 275.953 -11.4146 274.112C-5.54713 271.909 0.625621 272.76 6.39536 273.737C12.5673 274.812 18.8171 276.202 25.3108 275.398C31.8045 274.594 37.5338 271.498 41.9067 266.966C49.7568 258.87 55.0421 243.324 48.569 234.239C42.0958 225.155 29.8312 230.321 20.3298 229.511C11.6126 228.778 11.8854 220.401 16.6482 214.661C23.9697 205.824 34.196 209.52 43.2244 211.512C48.7112 212.719 54.6839 213.825 60.4989 212.415C66.314 211.005 71.5859 206.943 74.7985 201.841C80.6856 192.532 78.094 181.866 68.5188 177.063C63.3769 174.478 57.9156 174.377 52.0359 173.995C47.8119 173.725 41.1597 173.517 39.5431 169.199C37.6181 164.004 40.9038 155.671 45.134 151.59C49.5767 147.281 55.0737 147.908 60.2404 149.267C69.1182 151.618 79.5525 156.43 89.0856 151.438C100.049 145.704 102 131.993 102.958 121.979C103.475 116.524 103.697 110.824 105.516 105.487C107.628 99.3394 111.379 93.3436 116.541 88.8222C121.702 84.3008 128.269 81.3199 135.263 81.0463L131.158 76.4359C130.89 78.1289 130.28 77.1393 129.729 78.0074C129.57 78.2743 129.771 77.7956 129.671 78.035L130.459 80.6031C129.859 81.1427 129.983 81.4038 130.842 81.4128C131.284 81.9708 131.642 81.8976 131.938 82.5245C132.322 83.3341 132.13 84.7355 132.086 85.6198C131.953 88.0484 131.575 90.5611 131.219 92.9679C129.797 102.529 125.285 111.283 119.866 119.699C115.94 125.777 111.097 133.153 111.953 140.229C113.045 149.08 123.854 150.997 131.914 148.236C136.327 146.723 140.142 144.022 144.463 142.391C148.062 141.04 153.94 140.815 154.743 145.071C156.329 153.463 142.95 159.285 136.468 161.842C127.379 165.441 117.393 168.122 109.913 174.668C103.436 180.324 97.7014 190.104 101.706 197.736C105.224 204.415 114.231 206.513 121.476 208.199C126.237 209.303 143.338 212.397 135.622 220.174C130.05 225.785 117.914 219.86 111.611 219.263C103.865 218.55 95.6177 220.088 88.2698 223.151C80.922 226.214 74.1653 231.202 70.1757 237.823C66.5155 243.935 64.2532 252.775 68.9038 258.311C72.9427 263.081 80.2619 263.644 86.5612 263.859C91.5534 264.022 101.638 263.053 103.64 268.563C106.729 277.044 83.1651 279.183 78.3844 280.295C70.5842 282.101 64.3471 285.629 58.2255 290.605C48.7998 298.232 33.69 315.295 49.0486 323.211C54.1737 325.836 59.8845 318.337 54.718 315.7L54.7798 315.83Z" fill="#255176"/>
<path d="M3.51408 429.201C5.52661 398.164 25.5135 349.794 66.9944 355.032C72.9765 355.781 74.1266 346.924 68.1859 346.187C21.3244 340.268 -3.59901 392.957 -5.91819 428.839C-6.29403 434.516 3.12152 434.918 3.485 429.215L3.51408 429.201Z" fill="#255176"/>
<path d="M9.25787 416.124C-1.35997 414.084 -11.0526 420.846 -17.3549 428.977C-19.3598 431.589 -17.9583 434.474 -15.3099 435.554C-12.4418 436.722 -9.01295 437.721 -5.93146 435.878C-3.31992 434.322 -2.43005 431.312 -3.57988 428.883C-6.18862 423.372 -13.5923 424.51 -17.3425 429.003C-19.1634 431.176 -18.1926 435.033 -15.2976 435.58C0.732851 438.67 15.296 433.695 29.4231 425.089C36.0021 421.079 42.3499 416.732 49.1726 413.086C52.5778 411.251 56.1444 409.53 59.8463 408.322C61.2881 407.831 62.7502 407.458 64.2371 407.138C65.9814 406.76 69.5625 405.672 71.3083 406.125C72.7638 406.491 73.374 407.705 74.038 408.957C75.4941 411.657 76.63 414.508 78.3021 417.137C82.1751 423.137 87.8006 426.292 95.6967 425.592C108.442 424.45 116.473 414.254 118.034 403.029C118.727 398.097 117.682 394.084 116.747 389.475C115.199 381.767 116.368 373.477 116.428 365.552C116.437 364.141 116.131 362.591 116.376 361.228C116.647 359.693 117.472 358.503 119.152 357.612C121.796 356.201 127.227 355.484 129.454 357.179C133.855 360.531 134.176 367.605 136.231 372.323C138.826 378.256 143.694 382.218 150.814 382.588C157.935 382.958 165.29 380.211 170.784 375.341C176.279 370.47 180.206 363.943 182.473 357.371C184.531 351.409 185.987 345.381 182.256 340.209C179.158 335.921 174.095 333.426 169.605 330.564C165.116 327.702 162.016 325.141 163.765 319.581C165.661 313.504 167.964 307.683 171.68 302.215C175.066 297.255 179.829 291.515 186.188 289.976C187.663 289.63 188.987 289.642 190.46 289.744C190.895 289.762 191.807 290.257 190.697 289.344C191.045 289.627 191.235 289.953 191.391 290.358C192.399 293.014 192.543 295.951 192.89 298.792C193.645 305.277 194.965 312.581 201.508 315.718C207.67 318.652 214.502 318.487 220.612 314.315C225.691 310.824 228.85 305.684 232.998 301.355C238.117 295.99 240.919 289.645 239.684 282.748C239.102 279.411 237.798 277.183 235.369 274.911C233.259 272.937 231.27 270.841 229.501 268.61C223.206 260.655 220.483 249.859 230.167 241.726C239.852 233.593 245.651 244.564 246.967 251.933C247.398 254.35 246.987 256.943 247.394 259.308C247.986 262.513 251.534 264.893 254.589 266.005C260.272 268.078 268.309 266.32 273.974 263.766C286.976 257.899 294.961 244.144 295.128 231.405C295.167 228.477 295.086 225.222 293.966 222.555C292.554 219.195 289.57 216.58 286.777 214.289C282.886 211.112 276.593 207.824 278.368 201.869C280.601 194.321 289.48 191.333 295.946 187.761C302.045 184.394 307.947 180.609 313.402 176.332C324.301 167.753 333.924 156.707 338.034 144.019C340.055 137.755 340.724 131.492 340.267 125.186C340.081 122.685 337.37 121.474 334.925 121.801C313.101 124.682 297.035 140.025 283.039 155.378C279.681 159.045 276.533 163.381 272.75 166.675C271.734 167.539 270.922 168.307 269.113 168.396C267.162 168.489 266.81 166.993 266.633 165.19C266.138 159.478 270.963 153.645 271.306 147.824C271.42 145.883 271.11 144.4 270.311 142.636C269.264 140.35 268.362 136.94 266.58 135.131C263.937 132.482 258.746 132.125 254.982 133.204C247.396 135.388 242.413 142.542 237.974 148.288C234.318 153.056 234.078 160.299 233.487 165.822C232.84 171.979 232.529 178.169 231.711 184.343C230.916 190.186 229.845 196.576 226.163 201.74C222.185 207.332 215.948 209.357 209.277 210.085L214.27 212.357C210.142 203.185 209.899 191.311 200.548 185.251C195.927 182.26 190.198 181.295 184.522 183.374C179.739 185.159 176.253 189.079 173.711 193.191C171.17 197.304 169.823 201.682 170.103 206.185C170.224 208.398 170.772 210.76 171.741 212.731C172.854 215.082 175.288 216.839 177.05 218.754C180.805 222.924 184.458 227.556 186.129 232.968C187.488 237.344 184.612 242.254 182.204 246.271C177.35 254.452 168.5 265.099 157.61 263.764L160.73 265.165C157.966 262.861 158.816 257.886 158.512 254.609C158.062 250.122 156.709 245.008 152.88 242.185C145.904 237.079 133.031 239.08 126.982 245.94C120.933 252.8 122.463 263.329 124.151 271.035C124.993 274.92 126.279 278.915 126.108 282.993C125.892 287.954 124.547 292.939 122.49 297.622C120.035 303.196 116.41 308.556 111.553 312.742C109.251 314.726 106.772 316.411 104.008 317.72C103.659 317.885 102.554 318.185 102.325 318.453C101.552 318.627 101.556 318.785 102.323 318.901C102.97 319.139 103.065 319.189 102.68 319.052C101.834 318.845 100.653 318.157 100.232 317.493L100.262 320.868C103.994 309.414 101.549 297.176 91.8779 289.988C83.9249 284.098 72.9192 283.873 63.0632 287.355C54.8818 290.237 48.1968 299.892 47.428 307.673C46.9817 312.072 48.6217 315.612 50.7636 319.234C54.3499 325.305 58.1567 331.24 61.9052 337.203C64.8654 341.876 73.6194 337.796 70.6345 333.071C66.3986 326.38 61.8224 319.722 58.1146 312.717C55.8709 308.504 57.2214 304.284 60.6057 299.996C63.2814 296.62 64.5588 295.631 68.8244 294.635C74.6809 293.238 80.6558 293.67 85.3183 296.898C90.4404 300.42 92.9349 306.593 92.5161 312.705C92.2808 316.046 90.1652 319.477 91.9566 322.434C93.3763 324.831 96.3992 326.853 99.2688 327.572C104.95 329.039 113.849 322.333 117.862 318.771C123.581 313.698 127.956 307.439 130.991 300.759C134.027 294.078 135.668 287.387 135.507 280.653C135.394 274.92 133.345 269.464 132.488 263.891C131.769 259.212 130.946 252.056 136.662 249.383C139.193 248.184 142.332 247.818 144.873 248.597C147.817 249.473 148.501 252.347 148.874 255.015C149.657 260.432 148.521 267.363 153.24 271.236C157.503 274.749 166.04 272.242 170.812 269.759C182.736 263.571 191.685 250.799 195.385 238.977C197.847 231.161 192.744 223.314 188.314 217.419C186.967 215.626 185.516 213.915 183.978 212.246C182.783 210.925 181.06 209.694 180.177 208.13C178.865 205.81 179.321 202.333 180.317 199.848C181.435 197.017 183.779 193.317 186.686 191.782C190.569 189.752 194.823 192.118 197.097 194.814C202.037 200.66 202.401 209.631 205.487 216.451C206.336 218.319 208.38 218.95 210.48 218.723C224.023 217.235 234.305 209.459 238.38 197.076C242.455 184.692 241.719 172.828 243.548 160.74C243.875 158.571 243.971 155.616 245.037 153.577C246.582 150.672 249.718 147.365 252.146 144.969C253.382 143.744 257.403 140.274 259.067 141.532C260.342 142.495 261.773 146.646 261.797 148.201C261.8 149.638 261.189 151.206 260.691 152.561C258.37 158.871 255.582 165.019 258.366 171.277C260.195 175.367 263.065 177.366 267.963 177.253C272.86 177.141 277.014 174.855 280.292 171.321C295.869 154.643 311.349 133.696 336.087 130.426L330.745 127.04C331.686 139.639 325.973 151.647 316.714 161.433C307.456 171.219 295.406 177.818 283.245 184.406C276.609 187.995 270.492 194.184 268.841 201.231C267.477 207.152 270.023 212.757 274.397 216.505C276.905 218.642 279.701 220.484 282.059 222.757C284.669 225.262 285.533 227.538 285.575 231.163C285.663 237.068 283.551 243.215 279.695 248.238C275.84 253.26 270.117 256.896 263.652 257.686C262.373 257.844 260.227 258.125 258.991 257.847C258.784 257.785 258.564 257.697 258.344 257.609L257.541 257.191C256.858 256.426 256.576 256.432 256.723 257.194L256.7 257.748C256.719 257.26 256.737 256.772 256.726 256.297C256.711 255.665 256.738 255.045 256.695 254.426C256.645 253.042 256.496 251.674 256.289 250.334C254.808 241.411 249.532 230.641 238.598 229.966C226.416 229.211 215.659 241.401 214.171 251.952C212.684 262.503 219.48 272.873 226.923 280.093C229.082 282.172 230.335 283.465 230.379 286.641C230.425 290.2 228.672 293.044 226.098 295.733C222.45 299.538 219.544 304.686 214.94 307.601C212.499 309.14 210.096 309.255 207.551 308.317C204.027 307.044 203.29 304.132 202.691 300.835C201.692 295.265 202.297 288.265 198.411 283.742C194.524 279.22 186.233 280.363 180.876 282.516C174.738 284.974 169.708 289.848 165.811 294.858C161.651 300.216 158.385 306.334 156.144 312.51C154.125 318.102 152.018 323.959 154.677 329.35C157.052 334.141 162.089 337.031 166.64 339.8C170.244 341.995 175.556 344.564 174.839 349.219C173.897 355.356 171.141 361.648 166.837 366.627C162.821 371.309 154.804 375.968 148.754 373.045C143.865 370.691 143.254 363.307 141.588 358.885C139.696 353.834 135.731 347.942 129.388 347.332C122.119 346.649 113.234 348.872 108.843 355.171C106.457 358.634 106.768 361.397 106.801 365.154C106.834 368.91 106.543 372.661 106.477 376.433C106.41 380.205 106.384 384.213 106.749 388.069C107.026 390.911 107.914 393.464 108.329 395.921C109.096 400.098 108.52 404.751 106.601 408.824C104.457 413.324 100.484 416.292 95.2945 416.766C88.0501 417.414 85.7797 411.264 83.3229 406.224C80.8662 401.185 77.7838 397.081 71.3171 397.265C64.0742 397.464 56.6915 399.776 50.0202 402.838C36.2701 409.155 24.6939 419.463 10.5068 424.932C3.18877 427.757 -4.51235 428.493 -11.8991 427.034L-9.85421 433.611C-10.1459 433.973 -11.4814 433.71 -12.1361 433.38C-14.2244 432.355 -7.88394 428.97 -9.20047 427.994C-9.81728 427.519 -11.1863 427.336 -11.8991 427.034L-9.85421 433.611C-6.56957 429.339 -0.423847 423.36 5.58591 424.544C11.5957 425.727 15.0065 417.207 9.13348 416.087L9.25787 416.124Z" fill="#255176"/>
<path d="M2.60087 432.831C40.3551 414.32 78.7365 376.968 71.6609 335.686C70.7165 330.155 61.3182 332.046 62.2626 337.577C68.6708 374.891 32.784 408.408 -1.10824 424.995C-6.68699 427.732 -2.97788 435.568 2.60087 432.831Z" fill="#255176"/>
<path d="M140.504 447.414C142.89 452.455 151.62 448.323 149.233 443.282C146.847 438.241 138.118 442.373 140.504 447.414Z" fill="#255176"/>
<path d="M177.765 476.838C180.151 481.878 188.88 477.746 186.494 472.705C184.108 467.665 175.379 471.797 177.765 476.838Z" fill="#255176"/>
<path d="M233.221 502.346C235.608 507.387 244.337 503.255 241.951 498.214C239.565 493.173 230.835 497.305 233.221 502.346Z" fill="#255176"/>
<path d="M88.3961 390.682C90.7823 395.723 99.5115 391.591 97.1253 386.55C94.7391 381.509 86.0099 385.642 88.3961 390.682Z" fill="#255176"/>
<path d="M138.612 346.131C140.998 351.172 149.727 347.04 147.341 341.999C144.955 336.958 136.226 341.09 138.612 346.131Z" fill="#255176"/>
<path d="M89.2535 211.912C91.6397 216.953 100.369 212.82 97.9828 207.78C95.5966 202.739 86.8673 206.871 89.2535 211.912Z" fill="#255176"/>
<path d="M21.2127 346.874C23.5989 351.915 32.3282 347.783 29.942 342.742C27.5558 337.701 18.8265 341.833 21.2127 346.874Z" fill="#255176"/>
</g>
</svg>
