<svg width="403" height="535" viewBox="0 0 403 535" fill="none" xmlns="http://www.w3.org/2000/svg">
<g opacity="0.7">
<path d="M199.998 217.48C203.85 214.101 199.067 208.647 195.215 212.026C191.363 215.404 196.146 220.858 199.998 217.48Z" fill="#122738"/>
<path d="M374.169 286.04C377.13 284.826 380.505 285.372 383.456 285.517C386.748 285.686 390.134 285.643 393.39 284.524C396.89 283.32 401.663 280.388 403.11 276.804C404.412 273.538 405.01 268.382 404.366 265.152C402.589 256.482 391.526 252.967 383.584 252.084C379.284 251.61 374.935 251.725 370.583 251.715C368.281 251.707 367.986 251.934 366.846 249.91C366.026 248.411 365.341 246.503 365.454 244.699L364.04 247.354C366.075 245.569 368.303 242.875 370.833 241.975C372.613 241.347 374.532 241.401 376.323 241.47C379.941 241.61 383.515 242.303 387.193 241.746C396.916 240.23 399.576 229.535 397.571 221.773C395.391 213.328 387.982 203.552 377.94 205.187C374.074 205.811 370.41 207.835 366.97 209.79C363.797 211.608 360.269 214.027 356.627 214.423C353.858 214.729 350.324 213.84 351.555 210.573C353.046 206.596 357.519 204.41 361.306 203.372C369.697 201.063 379.993 201.328 384.671 192.208C389.349 183.087 384.283 176.466 376.295 173.276C372.319 171.682 367.991 170.814 363.763 169.858C361.729 169.391 359.69 168.959 357.684 168.403C356.883 168.173 354.952 167.1 356.432 168.344C355.921 167.923 355.471 167.449 354.961 167.029C354.008 166.224 352.947 165.417 352.281 164.779C351.827 164.341 351.408 163.904 351.014 163.414C350.743 163.105 350.743 163.105 350.727 162.926C350.711 162.747 350.567 162.744 350.839 162.249C351.174 161.665 351.777 161.104 352.3 160.613C353.705 159.317 355.741 157.531 357.608 157.084C361.674 156.123 366.4 158.411 370.249 159.056C372.826 159.497 375.371 159.742 378.052 159.417C381.004 159.079 382.96 156.72 385.156 154.794C386.373 153.727 387.077 151.63 386.296 150.256C380.67 140.621 378.902 129.949 379.696 118.414C380.01 113.86 380.048 106.173 386.944 108.037C391.447 109.265 395.119 112.446 396.875 116.662C400.491 125.295 398.022 136.37 397.277 145.707C397.084 148.063 396.504 150.985 396.929 153.281C397.398 155.829 400.48 158.015 402.678 158.95C407.296 160.914 411.721 158.995 415.796 156.032C419.225 153.54 422.175 150.18 426.05 148.358C430.591 146.208 435.629 147 437.776 151.26C439.497 154.672 440.543 160.413 437.305 163.767C434.922 166.243 430.92 166.794 427.836 167.344C419.689 168.764 410.513 169.575 404.437 176.416C397.989 183.679 400.244 194.02 408.028 197.903C416.953 202.362 425.139 196.276 433.535 192.161C437.63 190.146 442.737 188.722 445.451 192.742C447.718 196.093 448.105 202.251 444.887 205.748C443.614 207.155 441.99 207.196 440.246 207.342C437.526 207.541 434.781 207.471 432.056 207.706C426.411 208.154 421.105 209.109 417.32 213.973C410.093 223.206 412.693 234.948 420.424 241.388C424.702 244.937 430.186 246.399 436.004 244.094C438.961 242.916 441.141 240.651 443.675 238.749C446.054 236.952 448.64 235.392 451.362 234.227C453.612 233.25 455.822 232.952 458.165 232.442C458.663 232.326 460.047 232.656 458.739 232.131C458.998 232.225 459.461 232.591 459.64 232.756C460.222 233.339 460.84 233.923 461.303 234.611C463.275 237.383 464.055 241.171 463.047 244.692C460.319 254.224 450.49 253.968 442.81 254.914C438.908 255.377 434.89 256.553 431.852 259.411C428.431 262.636 426.206 267.547 426.861 271.958C428.426 282.357 443.099 280.649 451.114 279.762C455.084 279.336 461.676 276.707 462.734 281.697C463.66 286.095 461.989 291.356 457.468 293.488C454.922 294.692 452.313 294.053 449.708 294.665C446.232 295.494 442.489 296.944 439.488 298.997C434.068 302.721 432.48 308.681 430.856 314.479C427.897 325.116 426.461 336.121 422.253 346.501C420.187 351.594 417.343 356.404 413.451 360.461L419.374 361.377C419.458 361.593 418.687 363.009 417.953 363.138C418.172 363.106 414.525 359.229 415.032 359.203C414.816 359.199 413.491 360.426 413.451 360.461L419.374 361.377C417.761 357.967 418.462 353.975 421.468 351.082C425.157 347.557 420.393 342.086 416.685 345.628C411.16 350.924 409.292 358.577 412.311 364.999C413.386 367.272 416.187 367.485 418.234 365.915C420.382 364.257 422.701 362.029 422.44 359.235C422.23 357.104 420.412 355.675 418.258 355.634C413.159 355.538 410.55 360.978 412.311 364.999C413.199 367.018 416.422 367.794 418.234 365.915C432.562 350.968 433.294 331.511 438.971 313.345C439.699 311.034 440.311 308.149 442.032 306.286C444.144 303.984 448.043 302.591 450.939 302.109C453.361 301.689 455.75 301.877 458.16 301.082C460.251 300.406 462.083 299.314 463.851 297.989C467.707 295.058 469.449 291.246 470.266 286.702C470.995 282.621 470.623 278.091 468.272 274.846C465.557 271.148 461.469 271.035 457 271.577C452.237 272.185 447.465 272.864 442.698 272.863C440.432 272.857 435.314 273.1 434.498 270.439C433.682 267.777 436.429 264.467 438.831 263.422C441.592 262.222 444.724 262.209 447.592 261.977C451.318 261.636 454.985 261.187 458.536 259.68C466.154 256.408 471.254 248.333 471.124 240.535C471.016 234.615 467.213 224.924 460.168 224.863C455.928 224.819 451.499 226.13 447.548 227.987C445.29 229.035 443.178 230.372 441.131 231.782C438.868 233.349 436.752 235.687 434.366 236.911C429.744 239.292 425.155 235.952 422.768 232.545C420.568 229.393 420.128 224.986 421.675 221.153C422.422 219.308 423.588 217.256 425.496 216.451C427.555 215.578 430.056 215.41 432.195 215.272C436.344 215.01 440.743 215.397 444.849 214.24C453.715 211.707 456.173 200.096 454.147 192.995C452.945 188.807 450.076 184.408 445.657 183.234C441.796 182.214 437.802 182.693 433.916 184.14C427.699 186.472 420.262 193.574 413.541 191.749C406.821 189.924 407.034 182.115 413.211 178.691C419.389 175.267 426.434 175.649 432.922 173.948C440.076 172.079 446.33 167.173 446.982 159.461C447.778 149.982 443.11 140.632 433.097 139.765C424.617 139.033 418.653 144.714 412.218 149.778C411.133 150.634 409.867 151.647 408.527 152.051C406.328 152.725 405.041 151.217 403.797 149.799L404.609 152.496C404.994 138.038 410.572 119.316 400.675 107.669C395.685 101.818 385.388 96.9218 377.796 103.001C371.074 108.382 371.821 119.016 371.931 126.188C372.068 136.168 374.431 145.545 379.32 153.898L380.46 149.36C379.782 149.955 377.718 151.99 377.718 151.99C376.716 152.419 374.678 151.987 373.721 151.862C370.741 151.484 367.909 150.59 364.985 150.035C362.449 149.558 359.868 149.152 357.207 149.62C354.159 150.171 351.764 151.949 349.269 153.816C345.282 156.798 341.796 161.399 343.636 166.154C344.79 169.162 348.168 171.442 349.998 173.086C353.825 176.483 360.076 176.887 365.105 178.072C369.19 179.025 376.358 180.072 378.477 184.099C379.413 185.851 378.714 188.233 377.583 189.964C375.994 192.42 373.109 193.278 370.484 193.908C364.423 195.331 358.287 195.824 352.7 199.116C347.672 202.079 343.04 207.91 343.574 213.713C344.109 219.516 350.011 222.22 355.48 222.054C360.95 221.889 365.671 218.938 370.321 216.308C374.97 213.678 379.567 210.867 383.742 214.379C387.916 217.89 392.702 225.4 389.989 231.768C388.226 235.919 382.395 234.343 379.204 234.086C376.743 233.897 374.266 233.851 371.756 234.25C368.093 234.825 365.575 236.423 362.741 238.908C361.204 240.256 358.81 241.713 358.05 243.666C357.595 244.837 357.749 246.342 357.888 247.507C358.237 250.642 359.555 253.957 361.54 256.301C365.666 261.206 374.104 259.112 380.124 259.493C383.75 259.722 387.467 260.257 390.694 261.802C393.27 263.048 396.851 265.118 396.976 268.321C397.039 269.842 396.587 271.46 396.255 272.974C396.135 273.561 396.094 274.562 395.819 275.093C396.582 273.588 395.072 275.329 394.773 275.592C392.63 277.375 390.184 278.009 387.551 278.067C381.906 278.193 376.732 277.166 371.17 279.439C366.457 281.353 369.524 287.991 374.181 286.094L374.169 286.04Z" fill="#122738"/>
<path d="M420.027 352.861C422.897 339.183 421.571 323.782 415.133 312.092C411.953 306.293 407.417 301.363 401.208 298.671C394.54 295.739 386.864 296.006 379.534 298.156C374.718 299.55 375.814 306.919 380.65 305.508C386.695 303.744 393.027 303.273 398.458 306.004C403.311 308.437 406.711 312.757 409.033 317.538C414.065 327.985 414.901 340.857 412.432 352.736C411.419 357.58 419.034 357.688 420.043 352.879L420.027 352.861Z" fill="#122738"/>
<path d="M298.544 354.779C298.265 355.668 297.913 356.716 297.342 357.314C296.999 357.647 296.448 357.905 295.694 358.051C293.631 358.477 291.318 357.772 289.411 357.129C284.853 355.595 280.151 352.771 276.779 349.811C271.077 344.84 269.998 336.363 265.774 330.258C261.813 324.534 253.737 320.198 246.888 326.077C241.471 330.731 241.167 337.752 242.072 343.777C242.577 347.13 245.228 354.743 241.923 357.738C239.859 359.612 236.002 359.683 233.556 359.351C230.525 358.954 227.753 357.525 225.497 355.677C220.784 351.833 217.732 345.858 216.911 339.728C215.943 332.504 218.785 324.35 214.158 318.149C209.204 311.494 198.308 312.558 193.942 320.504C190.236 327.229 191.264 334.722 190.393 341.822C190.092 344.337 189.674 348.048 187.304 349.774C184.306 351.952 179.301 350.392 176.681 348.894C169.639 344.972 166.194 336.736 161.175 330.813C156.157 324.889 149.052 320.089 140.705 322.167C132.358 324.245 128.573 333.901 132.059 340.975C133.847 344.585 137.005 347.058 139.484 350.126C140.859 351.815 143.106 356.148 140.049 357.736C137.451 359.082 133.538 358.364 130.922 357.957C127.28 357.388 123.69 356.516 120.025 356C111.488 354.803 103.174 355.63 94.5758 357.864C90.6097 358.898 86.3122 360.48 84.3866 364.485C82.6767 368.011 82.7532 372.768 86.0588 374.887C88.7742 376.654 92.7997 376.211 94.8563 373.121C96.6094 370.49 96.169 367.049 94.6268 364.767C92.6542 361.833 89.2958 360.983 85.701 361.756C83.7659 362.167 81.9851 364.404 82.4704 366.326C85.2272 377.481 94.1819 384.873 105.594 386.894C110.939 387.834 116.28 387.684 121.758 386.482C126.646 385.412 131.434 383.786 136.314 382.787C140.459 381.917 146.412 380.974 149.757 383.701C152.213 385.696 152.007 389.608 151.797 392.59C151.169 401.536 148.461 411.694 156.383 417.708C163.744 423.281 179.988 422.8 185.958 413.543C188.682 409.321 188.626 404.225 188.162 399.71C187.722 395.464 186.409 391.309 188.207 386.998C189.614 383.61 192.496 381.34 196.178 381.391C200.885 381.444 204.342 384.137 205.188 388.605C206.881 397.541 202.69 407.457 207.874 415.422C211.907 421.63 220.362 424.829 228.115 422.596C236.761 420.095 240.7 411.944 238.903 403.936C238.028 400.04 236.072 396.159 236.047 392.064C236.022 387.969 240.59 386.535 244.062 385.742C249.029 384.602 254.582 384.974 258.457 387.944C262.564 391.096 263.023 396.29 263.123 401.316C263.223 406.342 262.937 411.289 264.17 415.997C265.483 420.957 268.245 425.032 272.272 428.093C279.48 433.575 290.538 434.587 297.346 426.204C304.153 417.822 300.242 408.772 300.52 399.748C300.642 395.46 302.341 390.753 307.438 391.976C312.536 393.198 315.433 397.669 317.309 402.102C321.427 411.71 324.319 423.261 336.617 424.922C347.283 426.374 351.005 415.198 352.068 406.868C352.698 401.909 353.024 397.088 356.637 392.954C359.939 389.19 364.831 386.958 369.384 385.345C379.703 381.73 390.798 380.651 400.687 375.581C406.681 372.511 411.798 368.119 415.875 362.742C417.544 360.539 416.083 356.739 413.19 357.024C410.661 357.281 407.617 357.795 406.613 360.637C405.61 363.479 407.675 365.431 409.741 366.739C412.647 368.564 417.341 364.898 415.509 361.681C413.441 357.994 409.851 356.639 405.478 357.934C402.019 358.942 398.925 361.494 395.498 362.377C390.626 363.627 391.742 370.978 396.614 369.729C398.429 369.262 407.624 363.803 408.461 365.321L414.229 360.262C413.356 359.548 413.264 359.725 413.969 360.811L413.273 363.641C411.453 364.626 411.13 364.942 412.315 364.642L409.63 358.924C401.86 369.148 390.513 371.992 379.01 374.941C369.342 377.405 358.413 380.203 351.299 388.116C347.722 392.089 345.688 396.896 344.942 401.924C344.321 406.168 344.414 410.622 342.5 414.68C340.414 419.147 335.888 417.488 332.945 415.18C329.026 412.121 327.514 406.853 325.81 402.334C322.56 393.637 316.576 383.511 305.449 384.232C294.323 384.953 292.239 397.715 293.167 406.261C293.599 410.257 294.537 414.548 293.214 418.635C291.891 422.723 288.283 425.372 284.074 424.882C279.866 424.392 276.026 421.745 273.731 418.483C270.997 414.641 270.769 409.631 270.708 404.892C270.668 399.813 270.879 394.578 269.219 389.827C267.559 385.075 264.098 381.613 259.644 379.634C251.68 376.069 237.876 376.757 231.265 384.518C224.653 392.279 230.839 400.137 231.608 407.697C232.321 414.63 225.274 416.982 219.75 415.073C211.247 412.141 212.782 403.141 213.074 395.583C213.249 390.992 213.264 386.057 211.201 382.013C209.137 377.969 204.938 375.155 200.184 374.243C191.504 372.56 182.98 377.817 180.42 386.655C179.041 391.403 179.788 395.637 180.363 400.279C180.779 403.612 181.618 408.795 178.253 411.36C174.202 414.431 166.734 414.451 162.678 412.444C158.399 410.343 158.087 405.921 158.437 401.529C159.053 393.978 161.489 384.476 155.864 378.666C149.402 371.983 137.64 374.676 129.121 377.001C124.481 378.273 119.681 379.846 114.941 380.078C109.48 380.333 103.896 379.281 99.3297 376.692C94.7639 374.103 91.2722 369.96 89.9794 364.662L86.7489 369.232C88.2052 368.919 87.4706 369.692 88.2803 369.85C88.5276 369.891 88.0968 369.883 88.3122 369.887L90.3397 368.495C90.8821 368.791 91.0816 368.616 90.9584 367.952C91.3577 367.441 91.2422 367.188 91.7212 366.768C92.3399 366.226 93.5409 365.944 94.2871 365.708C96.338 365.067 98.4965 364.589 100.563 364.127C108.774 362.297 116.78 363.091 124.642 364.687C130.322 365.849 137.226 367.32 143.013 364.496C150.248 360.949 150.206 352.044 146.671 346.685C144.735 343.752 141.896 341.643 139.875 338.816C138.197 336.46 137.115 332.005 140.551 330.085C147.328 326.297 154.231 334.812 157.356 339.019C161.748 344.913 165.509 351.778 172.121 355.532C177.835 358.786 186.885 360.208 192.658 354.791C197.707 350.041 198.092 342.467 198.399 336.376C198.597 332.374 198.583 318.267 206.26 321.826C211.8 324.398 208.692 335.55 209.151 340.583C209.733 346.762 212.274 352.639 215.953 357.357C219.632 362.075 224.831 365.748 230.974 366.794C236.642 367.741 244.378 366.777 248.299 361.505C251.673 356.938 251.031 351.133 250.253 346.219C249.629 342.327 247.285 334.863 251.587 331.636C258.209 326.665 263.582 344.145 265.239 347.484C267.936 352.934 271.835 356.655 276.927 359.844C284.739 364.765 301.306 371.173 305.588 356.932C307.004 352.185 299.864 350.084 298.445 354.867L298.544 354.779Z" fill="#122738"/>
<path d="M401.142 359.552C374.884 367.497 331.397 366.912 329.466 333.387C329.182 328.554 321.601 330.378 321.889 335.175C324.069 373.05 371.917 376.113 402.274 366.921C407.078 365.474 405.982 358.105 401.158 359.57L401.142 359.552Z" fill="#122738"/>
<path d="M389.333 359.133C389.243 367.928 396.372 373.318 404.13 375.681C406.619 376.425 408.818 374.464 409.318 372.096C409.859 369.531 410.172 366.587 408.163 364.779C406.464 363.245 403.811 363.481 401.955 365.109C397.744 368.803 399.822 374.152 404.15 375.664C406.244 376.401 409.321 374.474 409.338 372.078C409.483 358.796 403.107 349.111 393.762 340.871C389.409 337.035 384.807 333.479 380.721 329.344C378.668 327.285 376.687 325.066 375.113 322.587C374.484 321.628 373.95 320.616 373.456 319.57C372.874 318.343 371.42 315.92 371.533 314.438C371.617 313.206 372.539 312.365 373.485 311.471C375.521 309.525 377.733 307.778 379.677 305.687C384.104 300.871 385.887 295.577 384.1 289.714C381.207 280.255 371.459 277.193 361.835 279.426C357.606 280.401 354.409 282.433 350.698 284.563C344.488 288.111 337.378 289.748 330.742 292.126C329.561 292.551 328.312 293.261 327.135 293.489C325.81 293.75 324.69 293.479 323.689 292.459C322.106 290.855 320.681 286.895 321.76 284.662C323.893 280.25 329.759 277.84 333.391 274.815C337.958 271.003 340.53 266.045 339.756 260.452C338.982 254.859 335.567 250.039 330.658 247.3C325.749 244.562 319.694 243.536 313.854 243.802C308.556 244.042 303.293 244.765 299.536 249.218C296.422 252.914 295.106 257.574 293.396 261.905C291.686 266.235 290.016 269.404 285.101 269.759C279.731 270.158 274.513 270.168 269.376 268.98C264.713 267.891 259.189 265.982 256.934 261.559C256.421 260.53 256.23 259.507 256.091 258.343C256.039 258.002 256.315 257.149 255.72 258.282C255.904 257.928 256.147 257.682 256.463 257.438C258.53 255.849 260.964 254.84 263.287 253.704C268.594 251.14 274.501 247.889 276.129 241.894C277.644 236.255 276.467 231.048 272.05 227.621C268.358 224.78 263.579 223.922 259.328 222.054C254.064 219.756 248.331 219.541 242.752 222.6C240.05 224.069 238.386 225.755 236.856 228.318C235.526 230.546 234.076 232.718 232.479 234.762C226.785 242.039 218.173 247.438 209.899 242.473C201.624 237.508 209.916 229.689 215.878 226.422C217.833 225.35 220.064 224.874 221.979 223.837C224.569 222.402 226.02 218.942 226.484 216.251C227.353 211.243 224.661 205.596 221.663 202.018C214.78 193.807 202.063 191.869 191.385 195.638C188.931 196.503 186.222 197.561 184.162 199.239C181.568 201.353 179.834 204.45 178.344 207.3C176.279 211.267 174.488 217.115 169.238 217.571C162.587 218.161 158.738 212.242 154.767 208.359C151.024 204.695 146.961 201.311 142.555 198.421C133.723 192.658 123.022 188.631 111.788 189.349C106.243 189.71 100.904 191.111 95.7007 193.392C93.6376 194.3 93.0375 196.757 93.6825 198.539C99.4119 214.452 114.685 222.124 129.653 228.198C133.23 229.66 137.334 230.756 140.664 232.661C141.541 233.178 142.307 233.568 142.657 234.933C143.031 236.406 141.834 237.135 140.353 237.822C135.652 239.951 130.041 238.021 125.121 239.538C123.481 240.044 122.288 240.736 120.935 241.891C119.182 243.396 116.468 245.133 115.226 247.058C113.413 249.903 113.905 254.007 115.379 256.573C118.36 261.743 125.1 263.389 130.58 265.048C135.123 266.403 141.216 264.372 145.924 263.137C151.171 261.752 156.394 260.098 161.681 258.838C166.688 257.663 172.194 256.533 177.072 257.787C182.353 259.138 184.995 263.317 186.619 268.229L187.759 263.691C180.718 269.674 170.826 273.493 167.182 282.543C165.383 287.015 165.448 291.719 168.05 295.451C170.27 298.586 174.079 300.07 177.904 300.767C181.729 301.465 185.595 301.162 189.318 299.57C191.15 298.799 193.041 297.655 194.542 296.306C196.338 294.731 197.437 292.32 198.771 290.378C201.686 286.213 205.004 281.985 209.275 279.043C212.727 276.659 217.27 277.37 220.996 277.994C228.574 279.227 238.824 282.781 239.365 291.57L240.061 288.741C238.555 291.573 234.266 292.44 231.572 293.677C227.889 295.396 223.818 298.001 222.04 301.812C218.832 308.742 222.464 318.037 229.12 320.593C235.776 323.15 244.348 318.752 250.534 315.096C253.655 313.259 256.8 311.048 260.236 309.932C264.417 308.58 268.79 308.09 273.018 308.241C278.053 308.425 283.086 309.575 287.325 312.033C289.335 313.197 291.121 314.589 292.636 316.316C292.827 316.534 293.245 317.293 293.505 317.388C293.768 317.929 293.899 317.878 293.88 317.252C293.98 316.681 294.008 316.592 293.952 316.931C293.907 317.645 293.512 318.764 293.021 319.292L295.838 318.236C285.693 318.868 275.831 324.493 271.293 334.135C267.577 342.057 269.063 350.596 273.475 357.115C277.129 362.53 286.219 364.721 292.843 362.933C296.589 361.93 299.299 359.586 302.002 356.829C306.533 352.212 310.917 347.467 315.332 342.758C318.789 339.05 314.046 333.562 310.549 337.304C305.598 342.611 300.728 348.169 295.434 353.166C292.253 356.181 288.519 356.433 284.419 355.14C281.188 354.114 280.167 353.433 278.685 350.455C276.626 346.375 276.079 341.645 278.068 337.069C280.234 332.05 285.016 328.242 290.191 326.694C293.02 325.853 296.211 326.432 298.411 324.149C300.199 322.323 301.43 319.378 301.595 316.95C301.958 312.129 294.996 307.331 291.407 305.333C286.295 302.483 280.396 301.031 274.348 300.739C268.301 300.446 262.456 301.231 256.849 303.414C252.073 305.255 247.822 308.501 243.293 310.865C239.489 312.85 233.631 315.672 230.526 312.091C229.139 310.51 228.355 308.206 228.62 306.012C228.905 303.478 231.203 302.073 233.378 300.97C237.788 298.711 243.757 297.464 246.277 292.648C248.566 288.293 245.171 282.489 242.369 279.576C235.381 272.293 223.34 269.313 212.891 270.082C205.981 270.578 200.197 276.906 195.94 282.118C194.647 283.703 193.437 285.343 192.275 287.038C191.352 288.361 190.585 290.063 189.412 291.221C187.671 292.941 184.695 293.654 182.465 293.648C179.927 293.654 176.477 292.981 174.751 291.214C172.463 288.847 173.794 284.849 175.703 282.274C179.84 276.684 187.286 273.659 192.519 269.198C193.952 267.974 194.168 266.208 193.659 264.66C190.355 254.693 182.288 249.159 171.313 249.811C160.338 250.463 150.53 254.659 140.144 256.949C138.281 257.361 135.795 258.191 133.928 257.995C131.264 257.694 128.021 256.292 125.649 255.157C124.436 254.58 120.923 252.547 121.722 250.882C122.333 249.606 125.586 247.235 126.883 246.741C128.084 246.299 129.489 246.289 130.697 246.259C136.326 246.114 141.891 246.38 146.701 242.322C149.842 239.663 151.077 236.844 150.238 233.109C149.399 229.374 146.855 226.877 143.402 225.435C127.086 218.549 107.216 213.043 100.718 195.006L98.6999 200.153C109.091 195.574 120.001 196.298 129.592 200.43C139.184 204.562 146.535 211.816 153.894 219.16C157.904 223.169 164.01 225.983 170.154 225.098C175.312 224.336 179.611 220.662 182.08 216.149C183.486 213.565 184.601 210.851 186.143 208.341C187.84 205.566 189.612 204.204 192.637 203.063C197.561 201.189 203.022 200.934 207.808 202.365C212.595 203.796 216.506 207.088 218.15 211.821C218.476 212.757 219.038 214.323 218.993 215.359C218.973 215.538 218.933 215.734 218.893 215.93L218.665 216.676C218.13 217.435 218.178 217.651 218.792 217.305L219.259 217.152C218.848 217.288 218.437 217.423 218.042 217.577C217.515 217.781 216.993 217.95 216.482 218.173C215.333 218.634 214.211 219.167 213.122 219.737C205.887 223.606 197.684 230.961 198.783 239.582C200.005 249.189 211.833 253.738 220.883 251.655C229.932 249.572 237.569 241.169 242.473 233.234C243.883 230.936 244.774 229.576 247.423 228.571C250.392 227.446 253.037 227.925 255.677 229.083C259.413 230.727 264.16 231.388 267.298 234.04C268.956 235.448 269.418 237.262 269.021 239.508C268.493 242.609 266.17 244.067 263.504 245.537C258.998 248.009 253.053 249.685 249.863 254.059C246.672 258.434 248.89 264.465 251.505 267.929C254.494 271.901 259.335 274.281 264.117 275.747C269.23 277.31 274.843 277.952 280.348 277.787C285.331 277.63 290.549 277.46 294.652 273.765C298.297 270.472 299.948 265.711 301.57 261.361C302.857 257.916 304.197 253.043 308.199 252.17C313.474 251.018 319.154 251.214 323.972 253.003C328.499 254.662 333.613 259.407 332.09 264.956C330.866 269.439 324.784 272.168 321.34 274.803C317.404 277.804 313.08 282.658 313.536 287.726C314.07 293.529 317.281 299.687 323.216 301.139C326.475 301.916 328.737 300.832 331.874 299.657C335.01 298.482 338.19 297.559 341.355 296.456C344.519 295.353 347.875 294.147 351.043 292.687C353.378 291.604 355.377 290.14 357.369 289.069C360.745 287.201 364.723 286.221 368.421 286.451C372.509 286.725 375.596 288.875 376.782 292.724C378.426 298.101 373.628 301.729 369.788 305.162C365.948 308.594 362.985 312.221 364.123 317.142C365.391 322.655 368.448 327.629 372.023 331.827C379.397 340.476 389.777 346.232 396.508 355.477C399.984 360.245 401.771 365.946 401.675 372.077L406.863 368.491C407.21 368.605 407.194 369.713 407.018 370.318C406.478 372.239 402.683 368.395 402.068 369.706C401.764 370.327 401.819 371.436 401.675 372.077L406.863 368.491C402.791 367.271 396.857 364.37 396.933 359.383C397.008 354.396 389.365 354.377 389.321 359.24L389.333 359.133Z" fill="#122738"/>
<path d="M404.316 359.144C383.094 335.751 346.023 317.64 312.58 335.713C308.098 338.132 311.11 344.786 315.591 342.367C345.817 326.021 379.303 343.386 398.329 364.395C401.466 367.851 407.453 362.6 404.316 359.144Z" fill="#122738"/>
<path d="M395.531 248.556C399.383 245.177 394.599 239.724 390.747 243.102C386.895 246.48 391.679 251.934 395.531 248.556Z" fill="#122738"/>
<path d="M356.02 306.011C359.872 302.633 355.089 297.179 351.237 300.557C347.385 303.935 352.168 309.389 356.02 306.011Z" fill="#122738"/>
<path d="M311.128 280.994C314.98 277.616 310.197 272.162 306.345 275.54C302.493 278.919 307.276 284.373 311.128 280.994Z" fill="#122738"/>
<path d="M206.406 360.037C210.258 356.659 205.475 351.205 201.623 354.583C197.771 357.962 202.554 363.416 206.406 360.037Z" fill="#122738"/>
<path d="M329.61 371.116C333.462 367.738 328.678 362.284 324.826 365.663C320.975 369.041 325.758 374.495 329.61 371.116Z" fill="#122738"/>
</g>
</svg>
